<?xml version="1.0" encoding="UTF-8" standalone="no"?>
<svg viewBox="0 0 197 203" version="1.1" xmlns="http://www.w3.org/2000/svg" xmlns:xlink="http://www.w3.org/1999/xlink" xmlns:sketch="http://www.bohemiancoding.com/sketch/ns">
    <!-- Generator: Sketch 3.3.1 (12002) - http://www.bohemiancoding.com/sketch -->
    <title>sound44</title>
    <desc>Created with Sketch.</desc>
    <defs></defs>
    <g id="Page-1" stroke="none" stroke-width="1" fill="none" fill-rule="evenodd" sketch:type="MSPage">
        <path d="M169.426087,125.722085 L169.426087,84.9579147 C169.26087,53.5187109 147.686957,23.4687014 115.391304,15.8368152 C115.391304,15.8368152 114.330435,0 98.4695652,0 C82.3391304,0 81.5565217,15.3940095 81.5565217,15.3940095 C49.2521739,22.9911659 27.9217391,53.5187109 27.7478261,84.9579147 L27.7478261,124.437081 C27.7478261,143.703469 15.0434783,147.028853 0,162.726749 L196.913043,162.726749 C181.86087,147.028853 169.426087,145.023204 169.426087,125.722085 L169.426087,125.722085 Z M98.4695652,202.040948 C115.756522,202.040948 130.2,188.235829 134.13913,170.593062 L62.8086957,170.593062 C66.7130435,188.235829 81.1826087,202.040948 98.4695652,202.040948 L98.4695652,202.040948 Z" id="sound44" fill="rgb(51, 51, 51)" sketch:type="MSShapeGroup"></path>
    </g>
</svg>