<?xml version="1.0" encoding="UTF-8" standalone="no"?>
<svg xmlns:sketch="http://www.bohemiancoding.com/sketch/ns" xmlns="http://www.w3.org/2000/svg" xmlns:xlink="http://www.w3.org/1999/xlink" version="1.1" viewBox="0 0 224 160"><!-- Generator: Sketch 3.3.1 (12002) - http://www.bohemiancoding.com/sketch -->
 <title>Untitled</title>
 <desc>Created with Sketch.</desc>
 <g id="Page-1" fill-rule="evenodd" sketch:type="MSPage" fill="none">
  <g id="Bed_Bath__and__Beyond" sketch:type="MSLayerGroup">
   <path id="Fill-1" sketch:type="MSShapeGroup" fill="transparent" d="m0 0.28319h223.72v223.65h-223.72v-223.65z"/>
   <path id="Fill-2" sketch:type="MSShapeGroup" fill="#333" d="m9.8699 139.78h2.2751c2.51 0 4.618 0.68 4.618 2.77 0 0.83-0.421 1.53-1.357 2 1.65 0.3 2.622 1.4 2.622 2.62 0 2.03-2.219 2.85-4.95 2.85h-3.2081v-10.24zm1.5401 9.18h1.539c1.725 0 3.54-0.31 3.54-1.87 0-1.59-2.056-1.82-3.742-1.82h-1.337v3.69zm0-4.67h0.587c1.74 0 3.227-0.15 3.227-1.74 0-1.55-1.321-1.71-3.209-1.71h-0.605v3.45z"/>
   <path id="Fill-3" sketch:type="MSShapeGroup" fill="#333" d="m20.242 147.06c0.021 1.18 1.156 2.13 2.825 2.13 1.247 0 2.053-0.56 2.621-1.32l1.248 0.53c-0.827 1.14-2.219 1.79-3.98 1.79-2.565 0-4.215-1.45-4.215-3.28 0-1.89 1.484-3.45 4.18-3.45 2.767 0 4.234 1.7 4.087 3.6h-6.766zm5.227-0.93c-0.202-0.92-1.248-1.66-2.53-1.66-1.266 0-2.439 0.74-2.623 1.66h5.153z"/>
   <path id="Fill-4" sketch:type="MSShapeGroup" fill="#333" d="m26.822 143.64h1.704l3.044 4.57 2.786-4.57h1.667l-6.361 9.96h-1.667l2.785-4.18-3.958-5.78"/>
   <path id="Fill-5" sketch:type="MSShapeGroup" fill="#333" d="m35.838 146.84c0-1.87 1.998-3.38 4.527-3.38 2.53 0 4.528 1.51 4.528 3.38 0 1.88-2.015 3.35-4.528 3.35-2.511 0-4.527-1.47-4.527-3.35zm1.466-0.01c0 1.3 1.247 2.36 3.061 2.36 1.815 0 3.061-1.06 3.061-2.36 0-1.29-1.246-2.36-3.061-2.36-1.814 0-3.061 1.07-3.061 2.36z"/>
   <path id="Fill-6" sketch:type="MSShapeGroup" fill="#333" d="m47.602 144.41h0.037c0.603-0.61 1.394-0.95 2.457-0.95 2.383 0 2.933 1.28 2.933 2.77v3.79h-1.467v-3.6c0-1.03-0.11-1.95-1.814-1.95-2.017 0-2.146 1.38-2.146 2.52v3.03h-1.466v-6.38h1.466v0.77"/>
   <path id="Fill-7" sketch:type="MSShapeGroup" fill="#333" d="m61.441 149.14h-0.038c-0.714 0.69-1.797 1.05-2.969 1.05-2.531 0-4.125-1.58-4.125-3.35 0-1.82 1.558-3.38 4.143-3.38 1.154 0 2.254 0.41 2.951 1.09h0.038v-5.73h1.467v11.2h-1.467v-0.88zm-5.629-2.38c0 1.25 0.989 2.43 2.823 2.43 1.887 0 2.879-1.13 2.879-2.42 0-1.27-1.083-2.3-2.898-2.3-1.704 0-2.804 1.1-2.804 2.29z"/>
   <path id="Fill-8" sketch:type="MSShapeGroup" fill="#333" d="m77.585 150.02h-1.467v-0.88h-0.035c-0.752 0.7-1.76 1.05-2.971 1.05-2.529 0-4.125-1.58-4.125-3.35 0-1.82 1.56-3.38 4.145-3.38 1.172 0 2.236 0.41 2.951 1.09h0.035v-0.91h1.467v6.38zm-7.093-3.26c0 1.25 0.99 2.43 2.822 2.43 1.888 0 2.878-1.13 2.878-2.42 0-1.27-1.08-2.3-2.895-2.3-1.705 0-2.805 1.1-2.805 2.29z"/>
   <path id="Fill-9" sketch:type="MSShapeGroup" fill="#333" d="m80.994 144.41h0.037c0.604-0.61 1.394-0.95 2.456-0.95 2.384 0 2.934 1.28 2.934 2.77v3.79h-1.467v-3.6c0-1.03-0.11-1.95-1.815-1.95-2.016 0-2.145 1.38-2.145 2.52v3.03h-1.467v-6.38h1.467v0.77"/>
   <path id="Fill-10" sketch:type="MSShapeGroup" fill="#333" d="m87.005 143.64h1.704l3.044 4.57 2.784-4.57h1.669l-6.361 9.96h-1.667l2.785-4.18-3.958-5.78"/>
   <path id="Fill-11" sketch:type="MSShapeGroup" fill="#333" d="m105.15 145.12c-0.21-0.34-0.65-0.65-1.18-0.65-0.51 0-1.06 0.29-1.06 0.7 0 0.59 0.99 0.8 2 1.12 1.01 0.31 2 0.75 2 1.83 0 1.21-1.32 2.07-2.92 2.07-1.45 0-2.58-0.61-3.04-1.61l1.3-0.41c0.37 0.6 0.79 1.02 1.76 1.02 0.79 0 1.39-0.39 1.39-0.98 0-1.42-3.88-0.94-3.88-2.94 0-1.08 1.17-1.81 2.56-1.81 0.99 0 1.91 0.52 2.3 1.18l-1.23 0.48"/>
   <path id="Fill-12" sketch:type="MSShapeGroup" fill="#333" d="m109.75 150.02h-1.47v-5.38h-0.9v-1h0.9v-2.3h1.47v2.3h1.54v1h-1.54v5.38"/>
   <path id="Fill-13" sketch:type="MSShapeGroup" fill="#333" d="m111.07 146.84c0-1.87 2-3.38 4.52-3.38 2.53 0 4.53 1.51 4.53 3.38 0 1.88-2.01 3.35-4.53 3.35-2.51 0-4.52-1.47-4.52-3.35zm1.46-0.01c0 1.3 1.25 2.36 3.06 2.36 1.82 0 3.07-1.06 3.07-2.36 0-1.29-1.25-2.36-3.07-2.36-1.81 0-3.06 1.07-3.06 2.36z"/>
   <path id="Fill-14" sketch:type="MSShapeGroup" fill="#333" d="m122.76 144.33h0.03c0.52-0.5 0.96-0.87 1.91-0.87 0.5 0 0.9 0.12 1.32 0.3l-0.7 0.99c-0.29-0.15-0.49-0.28-0.88-0.28-1.61 0-1.68 1.53-1.68 2.36v3.19h-1.47v-6.38h1.47v0.69"/>
   <path id="Fill-15" sketch:type="MSShapeGroup" fill="#333" d="m127.47 147.06c0.02 1.18 1.15 2.13 2.82 2.13 1.25 0 2.05-0.56 2.62-1.32l1.25 0.53c-0.82 1.14-2.22 1.79-3.98 1.79-2.56 0-4.21-1.45-4.21-3.28 0-1.89 1.48-3.45 4.18-3.45 2.76 0 4.23 1.7 4.08 3.6h-6.76zm5.22-0.93c-0.2-0.92-1.24-1.66-2.53-1.66-1.26 0-2.43 0.74-2.62 1.66h5.15z"/>
   <path id="Fill-16" sketch:type="MSShapeGroup" fill="#333" d="m139.58 146.84c0-1.87 2-3.38 4.53-3.38s4.53 1.51 4.53 3.38c0 1.88-2.02 3.35-4.53 3.35s-4.53-1.47-4.53-3.35zm1.47-0.01c0 1.3 1.24 2.36 3.06 2.36 1.81 0 3.06-1.06 3.06-2.36 0-1.29-1.25-2.36-3.06-2.36-1.82 0-3.06 1.07-3.06 2.36z"/>
   <path id="Fill-17" sketch:type="MSShapeGroup" fill="#333" d="m151.47 150.02h-1.46v-5.38h-0.81v-1h0.81v-2.54c0-0.53 0-1.2 0.38-1.66 0.48-0.57 1.34-0.8 2.22-0.8 0.35 0 0.7 0.06 1.04 0.14v1.09c-0.32-0.08-0.62-0.14-0.98-0.14-1.2 0-1.2 0.62-1.2 1.75v2.16h2.18v1h-2.18v5.38"/>
   <path id="Fill-18" sketch:type="MSShapeGroup" fill="#333" d="m159.28 143.64h1.46v6.38h-1.46v-6.38zm1.78-2.41c0 0.44-0.48 0.78-1.05 0.78s-1.04-0.34-1.04-0.78c0-0.42 0.47-0.77 1.04-0.77s1.05 0.35 1.05 0.77z"/>
   <path id="Fill-19" sketch:type="MSShapeGroup" fill="#333" d="m164.58 150.02h-1.47v-5.38h-0.9v-1h0.9v-2.3h1.47v2.3h1.54v1h-1.54v5.38"/>
   <path id="Fill-20" sketch:type="MSShapeGroup" fill="#333" d="m170.15 145.12c-0.2-0.34-0.64-0.65-1.18-0.65-0.51 0-1.06 0.29-1.06 0.7 0 0.59 0.99 0.8 2 1.12 1.01 0.31 2 0.75 2 1.83 0 1.21-1.32 2.07-2.92 2.07-1.44 0-2.58-0.61-3.04-1.61l1.3-0.41c0.37 0.6 0.79 1.02 1.76 1.02 0.79 0 1.39-0.39 1.39-0.98 0-1.42-3.88-0.94-3.88-2.94 0-1.08 1.17-1.81 2.57-1.81 0.99 0 1.9 0.52 2.29 1.18l-1.23 0.48"/>
   <path id="Fill-21" sketch:type="MSShapeGroup" fill="#333" d="m179.48 146l3.13-2.36h1.96l-3.68 2.71 4.38 3.67h-1.94l-3.47-2.91-0.38 0.29v2.62h-1.47v-11.2h1.47v7.18"/>
   <path id="Fill-22" sketch:type="MSShapeGroup" fill="#333" d="m186.2 143.64h1.47v6.38h-1.47v-6.38zm1.78-2.41c0 0.44-0.48 0.78-1.04 0.78-0.57 0-1.05-0.34-1.05-0.78 0-0.42 0.48-0.77 1.05-0.77 0.56 0 1.04 0.35 1.04 0.77z"/>
   <path id="Fill-23" sketch:type="MSShapeGroup" fill="#333" d="m191.43 144.41h0.03c0.61-0.61 1.4-0.95 2.46-0.95 2.38 0 2.93 1.28 2.93 2.77v3.79h-1.46v-3.6c0-1.03-0.11-1.95-1.82-1.95-2.01 0-2.14 1.38-2.14 2.52v3.03h-1.47v-6.38h1.47v0.77"/>
   <path id="Fill-24" sketch:type="MSShapeGroup" fill="#333" d="m205.26 149.14h-0.03c-0.72 0.69-1.8 1.05-2.97 1.05-2.53 0-4.13-1.58-4.13-3.35 0-1.82 1.56-3.38 4.15-3.38 1.15 0 2.25 0.41 2.95 1.09h0.03v-5.73h1.47v11.2h-1.47v-0.88zm-5.62-2.38c0 1.25 0.99 2.43 2.82 2.43 1.89 0 2.88-1.13 2.88-2.42 0-1.27-1.08-2.3-2.9-2.3-1.7 0-2.8 1.1-2.8 2.29z"/>
   <path id="Fill-25" sketch:type="MSShapeGroup" fill="#333" d="m211.13 149.42c0 0.42-0.46 0.77-1.03 0.77s-1.02-0.35-1.02-0.77c0-0.41 0.45-0.75 1.02-0.75s1.03 0.34 1.03 0.75"/>
   <path id="Fill-26" sketch:type="MSShapeGroup" fill="#333" d="m10.145 110.03h10.997c5.03 0 10.167 1.1 10.167 6.55 0 2.07-1.139 4.11-3.413 4.77v0.18c2.827 0.91 4.62 2.79 4.62 5.61 0 4.86-4.964 6.52-9.515 6.52h-12.856v-23.63zm9.616 9.09c1.381 0 2.931-0.12 2.931-1.76 0-1.75-1.759-1.62-3.137-1.62h-0.654v3.38h0.86zm-0.86 8.9h1.066c1.552 0 3.792-0.03 3.792-1.98 0-1.97-2.411-1.94-3.929-1.94h-0.929v3.92z"/>
   <path id="Fill-27" sketch:type="MSShapeGroup" fill="#333" d="m34.026 110.03h19.065v6.46h-8.687v2.25h7.935v6.15h-7.935v2.32h8.986v6.45h-19.364v-23.63"/>
   <path id="Fill-28" sketch:type="MSShapeGroup" fill="#333" d="m66.489 110.03l3.552 6.18h0.34c0.337-0.76 0.632-1.51 1.056-2.23l2.286-3.95h13.027l-10.914 13.45v10.18h-11.336v-10.18l-11.124-13.45h13.113"/>
   <path id="Fill-29" sketch:type="MSShapeGroup" fill="#333" d="m119.54 121.91c0 7.58-8.5 12.12-18.95 12.12-10.446 0-18.941-4.54-18.941-12.12 0-7.43 8.542-12.25 18.941-12.25 10.41 0 18.95 4.82 18.95 12.25zm-25.353 0.13c0 2.69 2.636 4.54 6.403 4.54 3.78 0 6.41-1.85 6.41-4.54 0-2.51-2.45-4.61-6.41-4.61-3.949 0-6.403 2.1-6.403 4.61z"/>
   <path id="Fill-30" sketch:type="MSShapeGroup" fill="#333" d="m159.94 110.03h19.67c17.83 0 31.51 3.48 31.51 12.16 0 7.02-11.14 11.47-26.72 11.47h-24.46v-23.63zm19.31 16.55h1.2c6.41 0 11.35-1.32 11.35-4.42 0-3.32-4.3-4.73-11.35-4.73h-1.2v9.15z"/>
   <path id="Fill-31" sketch:type="MSShapeGroup" fill="#333" d="m206.93 110.29c0-1.75 1.39-3.15 3.16-3.15s3.16 1.4 3.16 3.15-1.39 3.15-3.16 3.15-3.16-1.4-3.16-3.15zm5.84 0c0-1.48-1.24-2.66-2.68-2.66s-2.68 1.18-2.68 2.66c0 1.49 1.24 2.66 2.68 2.66s2.68-1.17 2.68-2.66zm-1.18 1.7h-0.58l-1.03-1.59h-0.58v1.59h-0.49v-3.44h1.5c0.62 0 1.23 0.17 1.23 0.91 0 0.68-0.48 0.93-1.09 0.94l1.04 1.59zm-1.61-2.07c0.43 0 1.18 0.08 1.18-0.47 0-0.35-0.47-0.42-0.84-0.42h-0.92v0.89h0.58z"/>
   <path id="Fill-32" sketch:type="MSShapeGroup" fill="#333" d="m207.84 137.74c0-1.66 1.33-2.99 3-2.99 1.68 0 3.01 1.33 3.01 2.99s-1.33 2.99-3.01 2.99c-1.67 0-3-1.33-3-2.99zm5.55 0c0-1.41-1.17-2.53-2.55-2.53-1.36 0-2.54 1.12-2.54 2.53s1.18 2.53 2.54 2.53c1.38 0 2.55-1.12 2.55-2.53zm-1.12 1.62h-0.55l-0.98-1.51h-0.55v1.51h-0.46v-3.27h1.42c0.59 0 1.17 0.16 1.17 0.86 0 0.64-0.46 0.88-1.04 0.9l0.99 1.51zm-1.53-1.97c0.4 0 1.12 0.08 1.12-0.45 0-0.33-0.45-0.39-0.8-0.39h-0.87v0.84h0.55z"/>
   <path id="Fill-33" sketch:type="MSShapeGroup" fill="#333" d="m133.86 110.05h-12.77v23.63h12.72v-12.02l11.27 12.02h12.72v-23.63h-12.72v12.24l-11.22-12.24"/>
   <path id="Fill-34" sketch:type="MSShapeGroup" fill="#333" d="m10.082 72.008h3.818c5.893 0 11.45 1.536 11.45 8.59 0 2.281-1.244 4.936-3.359 5.933v0.083c3.692 0.665 6.264 4.273 6.264 7.926 0 6.26-5.351 8.75-10.87 8.75h-7.303v-31.282zm3.901 13.859h0.994c3.695 0 6.724-0.747 6.724-5.229 0-4.398-2.989-5.143-6.638-5.143h-1.08v10.372zm0 13.942h2.986c3.611 0 7.388-1.078 7.388-5.518 0-4.399-4.483-5.313-7.969-5.313h-2.405v10.831z"/>
   <path id="Fill-35" sketch:type="MSShapeGroup" fill="#333" d="m30.534 72.008h16.805v3.568h-12.905v8.756h12.531v3.569h-12.531v11.827h12.905v3.562h-16.805v-31.282"/>
   <path id="Fill-36" sketch:type="MSShapeGroup" fill="#333" d="m50.99 72.008h6.472c9.586 0 17.554 5.062 17.554 15.477 0 10.664-7.802 15.805-17.678 15.805h-6.348v-31.282zm3.9 27.72h1.37c7.965 0 14.855-2.99 14.855-12.076 0-9.129-6.89-12.076-14.855-12.076h-1.37v24.152z"/>
   <path id="Fill-37" sketch:type="MSShapeGroup" fill="#333" d="m85.993 72.008h3.818c5.892 0 11.449 1.536 11.449 8.59 0 2.281-1.24 4.936-3.358 5.933v0.083c3.698 0.665 6.268 4.273 6.268 7.926 0 6.26-5.355 8.75-10.873 8.75h-7.304v-31.282zm3.901 13.859h0.995c3.694 0 6.722-0.747 6.722-5.229 0-4.398-2.987-5.143-6.639-5.143h-1.078v10.372zm0 13.942h2.988c3.61 0 7.388-1.078 7.388-5.518 0-4.399-4.483-5.313-7.969-5.313h-2.407v10.831z"/>
   <path id="Fill-38" sketch:type="MSShapeGroup" fill="#333" d="m111.72 95.451l-3.57 7.839h-4.19l14.93-32.61 14.94 32.61h-4.19l-3.57-7.839h-14.35zm7.17-16.222l-5.56 12.654h11.13l-5.57-12.654z"/>
   <path id="Fill-39" sketch:type="MSShapeGroup" fill="#333" d="m140.72 103.29h-3.9v-27.714h-7.43v-3.568h18.76v3.568h-7.43v27.714"/>
   <path id="Fill-40" sketch:type="MSShapeGroup" fill="#333" d="m169.05 84.623v-12.615h3.9v31.282h-3.9v-15.018h-14.89v15.018h-3.9v-31.282h3.9v12.615h14.89"/>
   <path id="Fill-41" sketch:type="MSShapeGroup" fill="#333" d="m202.11 99.061c-2.37 2.779-5.69 4.899-9.38 4.899-5.23 0-9.59-3.82-9.59-9.213 0-3.985 2.49-6.142 5.48-8.298l1.95-1.411c-1.78-1.869-3.44-4.191-3.44-6.848 0-4.315 3.11-6.844 7.22-6.844 3.82 0 7.22 2.405 7.22 6.513 0 3.526-3.07 5.891-5.69 7.801l6.52 7.883 3.65-4.232 2.49 2.572-3.82 4.482 5.6 6.925h-4.81l-3.4-4.229zm-9.63-10.952c-2.16 1.493-5.68 3.607-5.68 6.597 0 2.986 2.82 5.764 5.81 5.764 2.9 0 5.22-2.197 7.17-4.147l-6.93-8.465-0.37 0.251zm1.7-5.479c1.58-1.245 3.74-2.532 3.74-4.813 0-2.199-1.58-3.404-3.66-3.404-1.86 0-3.48 1.33-3.48 3.32 0 1.578 0.95 2.741 1.87 3.9l1.03 1.331 0.5-0.334z"/>
  </g>
 </g>
</svg>
