<?xml version="1.0" encoding="UTF-8" standalone="no"?>
<svg viewBox="0 0 166 81" version="1.1" xmlns="http://www.w3.org/2000/svg" xmlns:xlink="http://www.w3.org/1999/xlink" xmlns:sketch="http://www.bohemiancoding.com/sketch/ns">

     <filter id="dropShadow">
        <feGaussianBlur in="SourceAlpha" stdDeviation="1" />
        <feOffset dx="0.1" dy="0" />
        <feMerge>
             <feMergeNode />
            <feMergeNode in="SourceGraphic" />
        </feMerge>
  </filter>

    <!-- Generator: Sketch 3.3.1 (12002) - http://www.bohemiancoding.com/sketch -->
    <title>Hampton_Inn__and__Suites</title>
    <desc>Created with Sketch.</desc>
    <defs></defs>
    <g id="Page-1" stroke="none" stroke-width="1" fill="none" fill-rule="evenodd" sketch:type="MSPage">
        <g id="Hampton_Inn__and__Suites" sketch:type="MSLayerGroup">
            <path d="M28.748,58.713 C29.956,56.564 31.158,55.121 32.239,54.531 C32.41,54.424 32.931,54.098 32.809,53.671 C32.683,53.233 32.018,53.185 31.738,53.185 C31.581,53.185 15.865,54.154 14.656,63.761 C14.599,66.338 15.928,67.407 16.726,67.806 C17.323,68.104 18.135,67.961 18.499,67.494 C18.65,67.301 18.931,66.772 18.292,66.026 C17.306,64.877 17.051,63.338 17.309,62.412 C17.684,61.063 20.36,57.035 27.531,55.594 C26.246,57.067 24.552,59.368 23.941,60.896 L23.528,61.936 C22.35,64.911 19.591,71.879 18.747,73.369 C17.783,75.07 15.049,79.008 10.497,78.839 C5.992,78.672 3.126,75.255 2.957,72.048 C2.782,68.719 3.723,66.399 6.098,64.293 C6.572,63.893 6.665,63.159 6.306,62.657 C6.128,62.41 5.414,61.682 3.678,62.724 L3.622,62.767 C2.316,64.073 0.497,67.695 0.739,71.319 C0.929,74.144 2.259,76.518 4.693,78.374 C7.305,80.366 10.445,80.981 13.772,80.153 C17.894,79.127 21.961,75.826 23.662,72.127 C25.18,68.829 26.269,65.577 27.145,62.965 C27.796,61.024 28.31,59.491 28.748,58.713" id="Fill-2" fill="#fff" sketch:type="MSShapeGroup" filter="url(#dropShadow)"></path>
            <path d="M65.688,63.119 C65.364,62.905 65.046,62.839 64.816,62.938 C64.225,63.191 64.371,64.056 64.555,65.152 L64.586,65.336 C64.749,66.31 64.446,72.44 59.215,76.162 C59.038,76.255 58.858,76.353 58.667,76.459 C57.592,77.05 56.254,77.786 54.805,77.739 C53.887,77.709 53.199,77.434 52.762,76.921 C52.271,76.344 52.097,75.463 52.246,74.301 C52.597,71.548 54.44,66.734 55.121,65.111 C55.609,63.946 56.001,62.179 55.499,61.031 C55.308,60.594 55.007,60.298 54.605,60.152 C53.415,59.719 51.136,60.551 49.027,62.63 L49.757,60.482 L45.84,60.482 L42.92,69.7 C41.452,72.048 40.162,73.045 39.084,72.66 C38.666,72.51 38.914,71.697 39.178,70.946 C39.178,70.946 39.263,70.701 39.265,70.694 C39.959,68.426 40.859,66.118 41.281,65.111 C41.769,63.946 42.161,62.179 41.66,61.031 C41.468,60.594 41.167,60.298 40.765,60.152 C39.439,59.67 37.137,60.762 35.173,62.704 L35.914,60.482 L32,60.482 L27.241,75.422 L31.148,75.422 L33.762,67.344 C34.322,65.551 35.867,63.854 37.065,63.037 C37.404,62.806 37.68,62.728 37.804,62.829 C37.994,62.982 38.019,63.556 37.734,64.252 C37.28,65.364 35.896,68.746 35.409,70.88 C35.091,71.938 34.666,73.887 35.385,75.054 C35.682,75.535 36.137,75.833 36.736,75.939 C38.241,76.205 40.344,74.679 41.737,73.383 L41.079,75.422 L44.988,75.422 L47.602,67.344 C48.162,65.55 49.707,63.854 50.905,63.037 C51.244,62.806 51.52,62.728 51.644,62.829 C51.834,62.982 51.859,63.556 51.575,64.252 L51.213,65.119 C50.562,66.671 49.576,69.017 49.186,70.725 C48.834,72.266 48.471,75.148 49.998,77.135 C50.986,78.419 52.596,79.109 54.786,79.186 C57.898,79.296 60.442,77.493 62.028,75.961 C64.871,73.216 67.014,69.026 67.014,66.215 C67.014,64.153 65.999,63.324 65.688,63.119" id="Fill-3" fill="#fff" sketch:type="MSShapeGroup" filter="url(#dropShadow)"></path>
            <path d="M39.014,39.973 L40.51,35.854 L42.022,35.854 L42.692,33.846 L41.215,33.846 C41.654,32.616 42.974,28.922 42.975,28.919 C43.651,26.952 45.515,22.87 47.738,21.465 C48.212,21.303 48.242,21.036 48.231,20.884 C48.188,20.271 47.365,20.475 47.365,20.475 C45.044,20.944 40.723,21.818 37.218,32.978 L36.919,33.811 L30.918,33.843 C32.022,30.604 33.772,26.7 34.04,26.118 C34.573,24.959 35.125,23.761 35.672,23.323 C36.342,22.891 36.47,22.384 36.293,22.068 C36.155,21.822 35.802,21.659 35.344,21.889 C34.998,22.081 34.028,22.548 32.496,22.74 C29.549,23.108 25.394,23.753 23.332,25.09 C22.268,25.78 22.257,26.603 22.302,26.925 C22.37,27.416 22.694,27.821 23.128,27.955 C23.587,28.097 24.08,27.926 24.49,27.474 C25.947,25.689 29.473,24.642 31.635,24.393 C29.744,26.194 28.034,29.763 27.532,31.018 C27.323,31.54 26.942,32.636 26.549,33.846 L23.516,33.846 L22.847,35.854 L25.917,35.854 L24.649,39.889 C24.15,41.488 23.719,42.869 23.508,43.501 C21.763,48.737 19.276,51.333 16.119,51.216 C11.412,51.042 8.542,46.601 8.486,42.409 C8.438,38.793 9.338,36.57 11.69,34.485 C12.173,34.076 12.309,33.295 11.902,32.815 C11.499,32.341 10.373,31.744 9.192,32.905 C8.07,34.027 6.419,37.616 6.499,41.706 C6.566,45.137 7.858,48.112 10.235,50.31 C12.662,52.554 15.526,53.325 18.52,52.541 C22.639,51.463 26.46,47.477 28.028,42.622 L30.227,35.854 L36.188,35.854 C35.952,36.513 35.286,38.412 35.286,38.412 C34.193,41.623 32.158,47.601 37.403,52.959 L37.894,52.659 C37.454,51.339 36.684,47.461 39.014,39.973" id="Fill-4" fill="#fff" sketch:type="MSShapeGroup" filter="url(#dropShadow)"></path>
            <path d="M44.866,36.482 C43.418,40.156 43.102,42.847 43.95,44.264 C44.316,44.876 44.9,45.246 45.638,45.333 C47.119,45.507 49.417,43.968 51.062,42.21 C51.091,43.004 51.315,43.874 51.827,44.499 C52.257,45.024 52.843,45.312 53.521,45.334 C54.984,45.382 56.9,43.946 58.232,42.679 L57.498,44.98 L61.426,44.98 L63.442,38.749 C63.992,37.043 65.757,33.995 67.508,32.944 C67.985,32.657 68.255,32.641 68.347,32.721 C68.567,32.909 68.497,33.759 68.198,34.49 L64.762,44.98 L68.754,44.98 L70.719,38.773 C71.28,37.034 73.117,33.974 74.834,32.944 C75.611,32.478 75.802,32.593 75.804,32.593 C76.014,32.646 75.898,33.014 75.602,33.736 C74.807,35.263 73.456,38.507 72.924,40.163 C72.569,41.265 72.346,43.337 73.183,44.523 C73.569,45.071 74.145,45.371 74.85,45.393 C76.311,45.439 78.481,43.705 79.93,42.295 L77.351,50.416 L81.248,50.416 C81.248,50.416 83.357,43.972 83.393,43.925 C83.421,43.955 83.519,44.124 83.519,44.124 C83.98,44.835 84.503,45.114 85.333,45.154 C86.495,45.21 91.043,43.917 92.749,38.271 C93.821,34.72 93.863,31.951 92.866,30.473 C92.431,29.827 91.811,29.45 91.075,29.383 C89.801,29.267 88.522,29.811 87.636,30.404 L87.848,29.737 L83.919,29.737 L80.857,39.378 C78.998,41.646 77.357,42.85 76.568,42.521 C76.231,42.381 76.357,41.198 76.849,39.885 C76.972,39.559 77.304,38.788 77.688,37.897 C78.424,36.191 79.34,34.067 79.575,33.243 C79.918,32.025 79.816,30.971 79.29,30.276 C78.876,29.73 78.223,29.441 77.4,29.441 C75.724,29.441 73.604,31.317 72.4,32.679 C72.411,31.686 72.152,30.782 71.661,30.189 C71.256,29.7 70.707,29.441 70.074,29.441 C68.571,29.441 66.702,30.974 65.482,32.264 L66.282,29.737 L62.354,29.737 L59.344,39.187 C57.884,41.31 56.447,42.453 55.398,42.324 C55.183,42.297 55.108,42.215 55.071,42.156 C54.841,41.795 55.146,40.857 55.368,40.173 L58.721,29.737 L54.786,29.737 L54.628,30.275 C54.098,29.64 53.369,29.323 52.408,29.323 C51.094,29.323 47.179,30.609 44.866,36.482 L51.2207031,35.9794922" id="Fill-5" fill="#fff" sketch:type="MSShapeGroup" filter="url(#dropShadow)"></path>
<!--             <path d="M85.679,36.524 C87.061,33.133 88.392,31.691 89.527,32.096 C89.553,32.105 89.454,32.024 89.527,32.096 C90.097,32.662 89.631,35.563 89.118,36.898 C88.149,39.418 86.147,43.038 84.706,42.837 C84.675,42.82 84.737,42.852 84.706,42.837 C84.437,42.707 84.013,42.483 84.078,41.535 C84.241,41.024 85.686,36.504 85.679,36.524" id="Fill-6" fill="#FFFFFF" sketch:type="MSShapeGroup"></path>
            <path d="M52.747,31.525 C53.006,31.419 53.224,31.406 53.414,31.485 C53.68,31.599 53.896,32.086 53.907,32.583 C53.758,33.051 52.599,36.678 52.599,36.678 C52.05,38.392 49.893,42.262 48.204,41.971 C48.023,41.94 47.898,41.851 47.809,41.69 C47.31,40.787 48.111,38.279 48.663,36.939 C48.989,36.146 51.094,32.208 52.747,31.525" id="Fill-7" fill="#FFFFFF" sketch:type="MSShapeGroup"></path> -->
            <path d="M138.972,32.438 C138.625,32.209 138.269,32.136 138.021,32.242 C137.419,32.5 137.583,33.477 137.771,34.595 C137.937,35.589 137.508,46.529 127.807,47.343 C126.873,47.422 126.169,47.032 125.723,46.509 C125.222,45.921 125.044,45.021 125.196,43.836 C125.554,41.027 127.435,36.115 128.129,34.459 C128.628,33.271 129.028,31.468 128.516,30.297 C128.32,29.851 128.014,29.549 127.603,29.4 C126.323,28.934 124.129,29.552 122.088,31.53 L122.645,29.737 L118.677,29.737 L118.602,29.921 C117.518,32.598 116.177,34.144 114.612,34.53 C114.719,32.052 113.941,30.239 112.445,29.529 C111.457,29.06 110.136,29.112 108.726,29.676 C106.423,30.597 104.411,32.686 103.475,35.126 C102.9,36.624 102.539,37.992 102.394,39.2 C100.434,41.697 98.765,42.89 97.902,42.441 C97.708,42.055 97.792,41.401 98.215,40.293 C98.296,40.083 101.113,31.152 101.113,31.152 L103.855,31.152 L104.261,29.739 L101.557,29.739 L103.361,24.014 L99.148,24.997 L97.64,29.739 L94.976,29.739 L94.469,31.152 L97.194,31.152 C96.682,32.766 94.725,38.923 94.727,38.918 C94.675,39.069 93.476,42.659 94.678,44.43 C95.084,45.028 95.707,45.352 96.528,45.393 C99.347,45.534 101.235,42.862 102.354,41.058 C102.558,43.133 103.671,44.517 105.613,45.085 C108.305,45.922 112.064,43.024 113.657,38.882 C113.95,38.122 114.177,37.351 114.34,36.589 C115.214,36.359 116.154,35.878 116.858,35.333 L113.806,44.98 L117.791,44.98 L120.458,36.737 C121.03,34.908 122.606,33.178 123.828,32.344 C124.174,32.108 124.456,32.029 124.582,32.131 C124.776,32.287 124.802,32.873 124.511,33.584 L124.143,34.467 C123.478,36.051 122.473,38.445 122.074,40.187 C121.715,41.76 121.345,44.701 122.903,46.727 C123.911,48.038 125.554,48.742 127.787,48.82 C130.274,48.908 132.806,47.777 135.111,45.553 C138.337,42.438 140.264,37.979 140.264,35.468 C140.264,33.447 139.275,32.638 138.972,32.438" id="Fill-8" fill="#fff" sketch:type="MSShapeGroup"></path>
            <path d="M107.984,43.009 C107.639,43.149 107.312,43.114 106.984,42.901 C106.545,42.615 106.293,42.071 106.235,41.284 C106.068,38.977 107.626,35.381 108.679,34.013 C109.207,35.826 110.389,36.652 111.42,36.842 C110.98,38.508 109.575,42.362 107.984,43.009" id="Fill-9" fill="#FFFFFF" sketch:type="MSShapeGroup"></path>
            <path d="M111.941,34.691 C111.565,34.665 111.259,34.539 111.035,34.305 C110.609,33.858 110.439,32.998 110.537,31.821 C111.03,31.349 111.466,31.122 111.688,31.233 C111.845,31.311 112.314,31.799 111.941,34.691" id="Fill-10" fill="#fff" sketch:type="MSShapeGroup" filter="url(#dropShadow)"></path>
            <path d="M78.553,7.226 C78.553,7.226 79.598,3.817 82.238,3.707 C79.598,3.597 78.553,0.188 78.553,0.188 C78.553,0.188 77.508,3.597 74.869,3.707 C77.508,3.817 78.553,7.226 78.553,7.226" id="Fill-11" fill="#fff" sketch:type="MSShapeGroup" filter="url(#dropShadow)"></path>
            <path d="M78.759,21.715 C79.392,19.818 81,18.499 81,18.499 C79.296,17.069 78.759,15.474 78.759,15.474 C78.759,15.474 78.223,17.069 76.519,18.499 C76.519,18.499 78.127,19.818 78.759,21.715" id="Fill-12" fill="#fff" sketch:type="MSShapeGroup" filter="url(#dropShadow)"></path>
            <path d="M72.147,6.869 C72.147,6.869 71.157,7.996 70.415,6.896 C70.415,6.896 69.673,5.357 71.845,5.219 C71.845,5.219 76.491,4.037 77.701,9.508 C77.701,9.508 78.966,14.347 74.787,18.059 C74.787,18.059 69.975,22.458 64.531,18.526 C64.531,18.526 62.167,16.464 62.964,13.66 C62.964,13.66 63.212,12.863 63.982,13.137 C63.982,13.137 64.614,13.33 64.421,14.375 C64.421,14.375 63.954,17.289 67.143,18.719 C67.143,18.719 72.532,20.836 75.776,15.309 C75.776,15.309 78.003,11.57 75.447,7.721 C75.447,7.721 74.374,6.154 72.147,6.869" id="Fill-13" fill="#fff" sketch:type="MSShapeGroup" filter="url(#dropShadow)"></path>
            <path d="M85.375,6.869 C85.375,6.869 86.365,7.996 87.107,6.896 C87.107,6.896 87.85,5.357 85.677,5.219 C85.677,5.219 81.031,4.037 79.821,9.508 C79.821,9.508 78.557,14.347 82.736,18.059 C82.736,18.059 87.547,22.458 92.991,18.526 C92.991,18.526 95.355,16.464 94.558,13.66 C94.558,13.66 94.311,12.863 93.541,13.137 C93.541,13.137 92.908,13.33 93.101,14.375 C93.101,14.375 93.568,17.289 90.379,18.719 C90.379,18.719 84.99,20.836 81.746,15.309 C81.746,15.309 79.519,11.57 82.076,7.721 C82.076,7.721 83.148,6.154 85.375,6.869" id="Fill-14" fill="#fff" sketch:type="MSShapeGroup" filter="url(#dropShadow)"></path>
            <path d="M159.674,61.759 C159.674,60.214 160.927,59.075 162.408,59.075 C163.874,59.075 165.127,60.214 165.127,61.759 C165.127,63.318 163.874,64.457 162.408,64.457 C160.927,64.457 159.674,63.318 159.674,61.759" id="Fill-15" fill="#fff" sketch:type="MSShapeGroup" filter="url(#dropShadow)"></path>
            <path d="M162.408,64.009 C163.625,64.009 164.586,63.055 164.586,61.759 C164.586,60.485 163.625,59.524 162.408,59.524 C161.176,59.524 160.215,60.485 160.215,61.759 C160.215,63.055 161.176,64.009 162.408,64.009" id="Fill-16" fill="#fff" sketch:type="MSShapeGroup" filter="url(#dropShadow)"></path>
            <path d="M161.838,63.318 L161.368,63.318 L161.368,60.214 L162.55,60.214 C163.283,60.214 163.646,60.485 163.646,61.097 C163.646,61.652 163.297,61.895 162.842,61.951 L163.725,63.318 L163.198,63.318 L162.379,61.973 L161.838,61.973 L161.838,63.318" id="Fill-17" fill="#FFFFFF" sketch:type="MSShapeGroup"></path>
            <path d="M162.4,61.574 C162.799,61.574 163.155,61.546 163.155,61.069 C163.155,60.684 162.806,60.613 162.479,60.613 L161.838,60.613 L161.838,61.574 L162.4,61.574" id="Fill-18" fill="#fff" sketch:type="MSShapeGroup" filter="url(#dropShadow)"></path>
            <path d="M128.594,59.617 C129.793,59.617 130.765,58.954 130.765,58.137 C130.765,57.319 129.793,56.656 128.594,56.656 C127.395,56.656 126.423,57.319 126.423,58.137 C126.423,58.954 127.395,59.617 128.594,59.617" id="Fill-19" fill="#fff" sketch:type="MSShapeGroup" filter="url(#dropShadow)"></path>
            <path d="M157.409,64.206 C157.409,64.206 156.781,62.532 157.13,61.765 C157.479,60.997 157.06,60.927 156.712,60.927 L153.572,60.927 C153.572,60.927 151.479,63.997 150.99,65.044 C150.502,66.09 147.641,73.765 143.734,73.765 C143.734,73.765 141.215,74.142 141.982,69.091 C142.271,69.224 142.761,69.369 143.525,69.369 C144.92,69.369 149.177,68.183 149.177,63.23 C149.177,63.23 149.456,60.509 146.037,60.509 C144.772,60.509 139.188,61.652 137.891,68.605 C137.059,69.64 134.86,72.23 133.687,72.23 C132.222,72.23 134.385,67.486 134.943,65.951 C135.154,65.372 135.701,63.853 136.301,62.183 L139.688,62.183 L140.106,60.858 L136.778,60.858 C137.625,58.5 138.432,56.253 138.432,56.253 L134.315,56.253 C134.315,56.253 133.605,58.281 132.723,60.858 L130.338,60.858 L129.99,62.183 L132.272,62.183 C131.32,64.984 130.283,68.105 129.747,69.936 C128.81,70.836 127.458,71.951 126.501,71.951 C126.501,71.951 125.594,72.16 126.71,69.021 C127.827,65.881 129.92,60.927 129.92,60.927 L125.803,60.927 C125.803,60.927 123.222,66.829 122.317,69.748 C121.021,70.939 118.413,73.167 118.888,71.318 L122.705,60.915 L118.598,60.915 L116.269,67.384 C115.68,69.269 114.195,71.261 112.936,72.12 C112.58,72.363 112.289,72.445 112.159,72.339 C111.96,72.178 111.933,71.575 112.232,70.843 C112.711,69.675 115.687,60.927 115.687,60.927 L111.361,60.927 C111.361,60.927 108.948,68.882 108.505,69.941 C107.991,71.165 107.579,73.023 108.107,74.229 C108.308,74.689 108.624,75 109.046,75.153 C110.441,75.66 113.279,74.582 114.715,71.633 C114.715,71.633 114.501,75.37 117.012,75.37 C117.012,75.37 119.085,75.784 121.957,72.349 C122.056,73.927 122.749,75.3 124.129,75.3 C125.388,75.3 127.589,73.887 129.354,72.019 C129.307,73.886 130.173,75.37 131.455,75.37 C132.847,75.37 134.66,74.475 137.757,70.686 C137.904,72.42 138.69,75.719 142.548,75.719 C147.781,75.719 150.781,71.951 153.363,64.835 C153.363,64.835 155.386,67.137 155.386,70.346 C155.386,73.556 151.967,74.951 151.13,74.951 C150.293,74.951 149.037,73.974 148.828,73.625 C148.618,73.277 147.502,73.765 148.13,74.812 C148.758,75.858 149.735,76.277 151.688,76.277 C153.642,76.277 158.874,74.951 158.874,69.439 C158.874,69.439 158.735,66.788 157.409,64.206" id="Fill-20" fill="#fff" sketch:type="MSShapeGroup" filter="url(#dropShadow)"></path>
            <path d="M145.827,63.579 C147.898,63.579 146.195,67.991 142.312,67.754 C142.778,66.551 144.102,63.579 145.827,63.579" id="Fill-21" fill="#FFFFFF" sketch:type="MSShapeGroup"></path>
            <path d="M107.454,68.672 C107.454,74.114 104.942,77.184 96.43,77.184 C87.918,77.184 85.407,71.951 85.407,67.416 C85.407,62.881 88.058,60.439 89.383,60.439 C90.709,60.439 90.639,61.765 90.639,61.765 C90.639,62.811 89.802,63.369 89.802,63.369 C86.523,65.811 87.081,68.463 87.081,68.463 C87.081,74.184 93.57,75.44 95.942,75.44 C98.314,75.44 102.43,73.695 102.43,70.556 C102.43,67.416 101.593,66.23 99.64,64.137 C97.686,62.044 95.174,61.067 95.174,57.439 C95.174,53.811 99.779,52.415 103.407,52.415 C108.989,52.415 111.082,56.183 111.082,57.997 C111.082,59.811 109.547,59.811 109.547,59.811 C108.152,59.811 108.012,58.416 108.012,58.416 C107.245,55.206 105.082,54.648 103.477,54.439 C103.477,54.439 97.965,53.462 97.965,56.253 C97.965,56.253 97.616,57.579 100.756,59.811 C103.896,62.044 107.454,65.463 107.454,68.672" id="Fill-22" fill="#fff" sketch:type="MSShapeGroup" filter="url(#dropShadow)"></path>
            <path d="M85.957,77.011 C84.772,77.222 82.311,75.992 80.743,72.234 C81.877,70.658 82.646,68.683 82.902,66.614 L81.807,66.568 C81.718,67.243 81.22,69.074 80.23,70.812 C78.793,66.33 78.615,65.929 78.615,65.929 C78.615,65.929 81.716,65.2 81.716,62.555 C81.716,59.91 79.983,59.91 79.39,59.91 C77.977,59.91 76.198,60.64 76.198,63.421 C76.198,64.051 76.332,64.843 76.541,65.699 C75.56,65.977 70.361,67.65 70.361,71.903 C70.361,71.903 70.407,75.688 74.693,75.688 C76.438,75.688 78.025,74.978 79.332,73.813 C79.952,75.421 81.514,78.379 84.771,78.379 C84.771,78.379 87.371,78.607 87.371,77.558 C87.371,77.558 87.234,76.783 85.957,77.011" id="Fill-23" fill="#fff" sketch:type="MSShapeGroup" filter="url(#dropShadow)"></path>
            <path d="M75.013,74.548 C75.013,74.548 72.687,74.913 72.687,71.995 C72.687,69.332 75.418,67.468 76.832,66.78 C77.528,69.158 78.589,71.713 78.931,72.633 C77.922,73.742 76.628,74.548 75.013,74.548" id="Fill-24" fill="#FFFFFF" sketch:type="MSShapeGroup"></path>
            <path d="M79.39,61.018 C78.296,61.018 77.84,61.78 77.84,62.965 C77.84,64.151 78.022,64.881 78.524,64.881 C79.026,64.881 80.261,63.375 80.211,62.236 C80.166,61.187 79.39,61.018 79.39,61.018" id="Fill-25" fill="#FFFFFF" sketch:type="MSShapeGroup"></path>
        </g>
    </g>
</svg>