<?xml version="1.0" encoding="UTF-8" standalone="no"?>
<svg xmlns:sketch="http://www.bohemiancoding.com/sketch/ns" xmlns="http://www.w3.org/2000/svg" xmlns:xlink="http://www.w3.org/1999/xlink" version="1.1" viewBox="0 0 166 81">
 <filter id="dropShadow">
  <feGaussianBlur stdDeviation="1" in="SourceAlpha"/>
  <feOffset dx="0.1" dy="0"/>
  <feMerge>
   <feMergeNode/>
   <feMergeNode in="SourceGraphic"/>
  </feMerge>
 </filter>
<!-- Generator: Sketch 3.3.1 (12002) - http://www.bohemiancoding.com/sketch -->
 <title>Hampton_Inn__and__Suites</title>
 <desc>Created with Sketch.</desc>
 <g id="Page-1" fill-rule="evenodd" sketch:type="MSPage" fill="none">
  <g id="Hampton_Inn__and__Suites" sketch:type="MSLayerGroup">
   <path id="Fill-2" sketch:type="MSShapeGroup" filter="url(#dropShadow)" fill="#fff" d="m28.748 58.713c1.208-2.149 2.41-3.592 3.491-4.182 0.171-0.107 0.692-0.433 0.57-0.86-0.126-0.438-0.791-0.486-1.071-0.486-0.157 0-15.873 0.969-17.082 10.576-0.057 2.577 1.272 3.646 2.07 4.045 0.597 0.298 1.409 0.155 1.773-0.312 0.151-0.193 0.432-0.722-0.207-1.468-0.986-1.149-1.241-2.688-0.983-3.614 0.375-1.349 3.051-5.377 10.222-6.818-1.285 1.473-2.979 3.774-3.59 5.302l-0.413 1.04c-1.178 2.975-3.937 9.943-4.781 11.433-0.964 1.701-3.698 5.639-8.25 5.47-4.505-0.167-7.371-3.584-7.54-6.791-0.175-3.329 0.766-5.649 3.141-7.755 0.474-0.4 0.567-1.134 0.208-1.636-0.178-0.247-0.892-0.975-2.628 0.067l-0.056 0.043c-1.306 1.306-3.125 4.928-2.883 8.552 0.19 2.825 1.52 5.199 3.954 7.055 2.612 1.992 5.752 2.607 9.079 1.779 4.122-1.026 8.189-4.327 9.89-8.026 1.518-3.298 2.607-6.55 3.483-9.162 0.651-1.941 1.165-3.474 1.603-4.252"/>
   <path id="Fill-3" sketch:type="MSShapeGroup" filter="url(#dropShadow)" fill="#fff" d="m65.688 63.119c-0.324-0.214-0.642-0.28-0.872-0.181-0.591 0.253-0.445 1.118-0.261 2.214l0.031 0.184c0.163 0.974-0.14 7.104-5.371 10.826-0.177 0.093-0.357 0.191-0.548 0.297-1.075 0.591-2.413 1.327-3.862 1.28-0.918-0.03-1.606-0.305-2.043-0.818-0.491-0.577-0.665-1.458-0.516-2.62 0.351-2.753 2.194-7.567 2.875-9.19 0.488-1.165 0.88-2.932 0.378-4.08-0.191-0.437-0.492-0.733-0.894-0.879-1.19-0.433-3.469 0.399-5.578 2.478l0.73-2.148h-3.917l-2.92 9.218c-1.468 2.348-2.758 3.345-3.836 2.96-0.418-0.15-0.17-0.963 0.094-1.714 0 0 0.085-0.245 0.087-0.252 0.694-2.268 1.594-4.576 2.016-5.583 0.488-1.165 0.88-2.932 0.379-4.08-0.192-0.437-0.493-0.733-0.895-0.879-1.326-0.482-3.628 0.61-5.592 2.552l0.741-2.222h-3.914l-4.759 14.94h3.907l2.614-8.078c0.56-1.793 2.105-3.49 3.303-4.307 0.339-0.231 0.615-0.309 0.739-0.208 0.19 0.153 0.215 0.727-0.07 1.423-0.454 1.112-1.838 4.494-2.325 6.628-0.318 1.058-0.743 3.007-0.024 4.174 0.297 0.481 0.752 0.779 1.351 0.885 1.505 0.266 3.608-1.26 5.001-2.556l-0.658 2.039h3.909l2.614-8.078c0.56-1.794 2.105-3.49 3.303-4.307 0.339-0.231 0.615-0.309 0.739-0.208 0.19 0.153 0.215 0.727-0.069 1.423l-0.362 0.867c-0.651 1.552-1.637 3.898-2.027 5.606-0.352 1.541-0.715 4.423 0.812 6.41 0.988 1.284 2.598 1.974 4.788 2.051 3.112 0.11 5.656-1.693 7.242-3.225 2.843-2.745 4.986-6.935 4.986-9.746 0-2.062-1.015-2.891-1.326-3.096"/>
   <path id="Fill-4" sketch:type="MSShapeGroup" filter="url(#dropShadow)" fill="#fff" d="m39.014 39.973l1.496-4.119h1.512l0.67-2.008h-1.477c0.439-1.23 1.759-4.924 1.76-4.927 0.676-1.967 2.54-6.049 4.763-7.454 0.474-0.162 0.504-0.429 0.493-0.581-0.043-0.613-0.866-0.409-0.866-0.409-2.321 0.469-6.642 1.343-10.147 12.503l-0.299 0.833-6.001 0.032c1.104-3.239 2.854-7.143 3.122-7.725 0.533-1.159 1.085-2.357 1.632-2.795 0.67-0.432 0.798-0.939 0.621-1.255-0.138-0.246-0.491-0.409-0.949-0.179-0.346 0.192-1.316 0.659-2.848 0.851-2.947 0.368-7.102 1.013-9.164 2.35-1.064 0.69-1.075 1.513-1.03 1.835 0.068 0.491 0.392 0.896 0.826 1.03 0.459 0.142 0.952-0.029 1.362-0.481 1.457-1.785 4.983-2.832 7.145-3.081-1.891 1.801-3.601 5.37-4.103 6.625-0.209 0.522-0.59 1.618-0.983 2.828h-3.033l-0.669 2.008h3.07l-1.268 4.035c-0.499 1.599-0.93 2.98-1.141 3.612-1.745 5.236-4.232 7.832-7.389 7.715-4.707-0.174-7.577-4.615-7.633-8.807-0.048-3.616 0.852-5.839 3.204-7.924 0.483-0.409 0.619-1.19 0.212-1.67-0.403-0.474-1.529-1.071-2.71 0.09-1.122 1.122-2.773 4.711-2.693 8.801 0.067 3.431 1.359 6.406 3.736 8.604 2.427 2.244 5.291 3.015 8.285 2.231 4.119-1.078 7.94-5.064 9.508-9.919l2.199-6.768h5.961c-0.236 0.659-0.902 2.558-0.902 2.558-1.093 3.211-3.128 9.189 2.117 14.547l0.491-0.3c-0.44-1.32-1.21-5.198 1.12-12.686"/>
   <path id="Fill-5" sketch:type="MSShapeGroup" filter="url(#dropShadow)" fill="#fff" d="m44.866 36.482c-1.448 3.674-1.764 6.365-0.916 7.782 0.366 0.612 0.95 0.982 1.688 1.069 1.481 0.174 3.779-1.365 5.424-3.123 0.029 0.794 0.253 1.664 0.765 2.289 0.43 0.525 1.016 0.813 1.694 0.835 1.463 0.048 3.379-1.388 4.711-2.655l-0.734 2.301h3.928l2.016-6.231c0.55-1.706 2.315-4.754 4.066-5.805 0.477-0.287 0.747-0.303 0.839-0.223 0.22 0.188 0.15 1.038-0.149 1.769l-3.436 10.49h3.992l1.965-6.207c0.561-1.739 2.398-4.799 4.115-5.829 0.777-0.466 0.968-0.351 0.97-0.351 0.21 0.053 0.094 0.421-0.202 1.143-0.795 1.527-2.146 4.771-2.678 6.427-0.355 1.102-0.578 3.174 0.259 4.36 0.386 0.548 0.962 0.848 1.667 0.87 1.461 0.046 3.631-1.688 5.08-3.098l-2.579 8.121h3.897s2.109-6.444 2.145-6.491c0.028 0.03 0.126 0.199 0.126 0.199 0.461 0.711 0.984 0.99 1.814 1.03 1.162 0.056 5.71-1.237 7.416-6.883 1.072-3.551 1.114-6.32 0.117-7.798-0.435-0.646-1.055-1.023-1.791-1.09-1.274-0.116-2.553 0.428-3.439 1.021l0.212-0.667h-3.929l-3.062 9.641c-1.859 2.268-3.5 3.472-4.289 3.143-0.337-0.14-0.211-1.323 0.281-2.636 0.123-0.326 0.455-1.097 0.839-1.988 0.736-1.706 1.652-3.83 1.887-4.654 0.343-1.218 0.241-2.272-0.285-2.967-0.414-0.546-1.067-0.835-1.89-0.835-1.676 0-3.796 1.876-5 3.238 0.011-0.993-0.248-1.897-0.739-2.49-0.405-0.489-0.954-0.748-1.587-0.748-1.503 0-3.372 1.533-4.592 2.823l0.8-2.527h-3.928l-3.01 9.45c-1.46 2.123-2.897 3.266-3.946 3.137-0.215-0.027-0.29-0.109-0.327-0.168-0.23-0.361 0.075-1.299 0.297-1.983l3.353-10.436h-3.935l-0.158 0.538c-0.53-0.635-1.259-0.952-2.22-0.952-1.314 0-5.229 1.286-7.542 7.159l6.355-0.503"/>
   <path id="Fill-6" sketch:type="MSShapeGroup" fill="#7e3f94" d="m85.679 36.524c1.382-3.391 2.713-4.833 3.848-4.428 0.026 0.009-0.073-0.072 0 0 0.57 0.566 0.104 3.467-0.409 4.802-0.969 2.52-2.971 6.14-4.412 5.939-0.031-0.017 0.031 0.015 0 0-0.269-0.13-0.693-0.354-0.628-1.302 0.163-0.511 1.608-5.031 1.601-5.011"/>
   <path id="Fill-7" sketch:type="MSShapeGroup" fill="#7e3f94" d="m52.747 31.525c0.259-0.106 0.477-0.119 0.667-0.04 0.266 0.114 0.482 0.601 0.493 1.098-0.149 0.468-1.308 4.095-1.308 4.095-0.549 1.714-2.706 5.584-4.395 5.293-0.181-0.031-0.306-0.12-0.395-0.281-0.499-0.903 0.302-3.411 0.854-4.751 0.326-0.793 2.431-4.731 4.084-5.414"/>
   <path id="Fill-8" sketch:type="MSShapeGroup" filter="url(#dropShadow)" fill="#fff" d="m138.97 32.438c-0.35-0.229-0.7-0.302-0.95-0.196-0.6 0.258-0.44 1.235-0.25 2.353 0.17 0.994-0.26 11.934-9.96 12.748-0.94 0.079-1.64-0.311-2.09-0.834-0.5-0.588-0.68-1.488-0.52-2.673 0.35-2.809 2.24-7.721 2.93-9.377 0.5-1.188 0.9-2.991 0.39-4.162-0.2-0.446-0.51-0.748-0.92-0.897-1.28-0.466-3.47 0.152-5.51 2.13l0.55-1.793h-3.96l-0.08 0.184c-1.08 2.677-2.42 4.223-3.99 4.609 0.11-2.478-0.67-4.291-2.17-5.001-0.98-0.469-2.3-0.417-3.71 0.147-2.31 0.921-4.32 3.01-5.25 5.45-0.58 1.498-0.94 2.866-1.09 4.074-1.96 2.497-3.625 3.69-4.488 3.241-0.194-0.386-0.11-1.04 0.313-2.148 0.081-0.21 2.895-9.141 2.895-9.141h2.75l0.4-1.413h-2.7l1.8-5.725-4.212 0.983-1.508 4.742h-2.664l-0.507 1.413h2.725c-0.512 1.614-2.469 7.771-2.467 7.766-0.052 0.151-1.251 3.741-0.049 5.512 0.406 0.598 1.029 0.922 1.85 0.963 2.819 0.141 4.712-2.531 5.822-4.335 0.21 2.075 1.32 3.459 3.26 4.027 2.69 0.837 6.45-2.061 8.05-6.203 0.29-0.76 0.52-1.531 0.68-2.293 0.87-0.23 1.81-0.711 2.52-1.256l-3.05 9.647h3.98l2.67-8.243c0.57-1.829 2.15-3.559 3.37-4.393 0.34-0.236 0.63-0.315 0.75-0.213 0.2 0.156 0.22 0.742-0.07 1.453l-0.37 0.883c-0.66 1.584-1.67 3.978-2.07 5.72-0.35 1.573-0.73 4.514 0.83 6.54 1.01 1.311 2.65 2.015 4.89 2.093 2.48 0.088 5.02-1.043 7.32-3.267 3.23-3.115 5.15-7.574 5.15-10.085 0-2.021-0.98-2.83-1.29-3.03"/>
   <path id="Fill-9" sketch:type="MSShapeGroup" fill="#7e3f94" d="m107.98 43.009c-0.34 0.14-0.67 0.105-1-0.108-0.44-0.286-0.69-0.83-0.74-1.617-0.17-2.307 1.39-5.903 2.44-7.271 0.53 1.813 1.71 2.639 2.74 2.829-0.44 1.666-1.84 5.52-3.44 6.167"/>
   <path id="Fill-10" sketch:type="MSShapeGroup" filter="url(#dropShadow)" fill="#7e3f94" d="m111.94 34.691c-0.38-0.026-0.68-0.152-0.9-0.386-0.43-0.447-0.6-1.307-0.5-2.484 0.49-0.472 0.93-0.699 1.15-0.588 0.15 0.078 0.62 0.566 0.25 3.458"/>
   <path id="Fill-11" sketch:type="MSShapeGroup" filter="url(#dropShadow)" fill="#fff" d="m78.553 7.226s1.045-3.409 3.685-3.519c-2.64-0.11-3.685-3.519-3.685-3.519s-1.045 3.409-3.684 3.519c2.639 0.11 3.684 3.519 3.684 3.519"/>
   <path id="Fill-12" sketch:type="MSShapeGroup" filter="url(#dropShadow)" fill="#fff" d="m78.759 21.715c0.633-1.897 2.241-3.216 2.241-3.216-1.704-1.43-2.241-3.025-2.241-3.025s-0.536 1.595-2.24 3.025c0 0 1.608 1.319 2.24 3.216"/>
   <path id="Fill-13" sketch:type="MSShapeGroup" filter="url(#dropShadow)" fill="#fff" d="m72.147 6.869s-0.99 1.127-1.732 0.027c0 0-0.742-1.539 1.43-1.677 0 0 4.646-1.182 5.856 4.289 0 0 1.265 4.839-2.914 8.551 0 0-4.812 4.399-10.256 0.467 0 0-2.364-2.062-1.567-4.866 0 0 0.248-0.797 1.018-0.523 0 0 0.632 0.193 0.439 1.238 0 0-0.467 2.914 2.722 4.344 0 0 5.389 2.117 8.633-3.41 0 0 2.227-3.739-0.329-7.588 0 0-1.073-1.567-3.3-0.852"/>
   <path id="Fill-14" sketch:type="MSShapeGroup" filter="url(#dropShadow)" fill="#fff" d="m85.375 6.869s0.99 1.127 1.732 0.027c0 0 0.743-1.539-1.43-1.677 0 0-4.646-1.182-5.856 4.289 0 0-1.264 4.839 2.915 8.551 0 0 4.811 4.399 10.255 0.467 0 0 2.364-2.062 1.567-4.866 0 0-0.247-0.797-1.017-0.523 0 0-0.633 0.193-0.44 1.238 0 0 0.467 2.914-2.722 4.344 0 0-5.389 2.117-8.633-3.41 0 0-2.227-3.739 0.33-7.588 0 0 1.072-1.567 3.299-0.852"/>
   <path id="Fill-15" sketch:type="MSShapeGroup" filter="url(#dropShadow)" fill="#fff" d="m159.67 61.759c0-1.545 1.26-2.684 2.74-2.684 1.46 0 2.72 1.139 2.72 2.684 0 1.559-1.26 2.698-2.72 2.698-1.48 0-2.74-1.139-2.74-2.698"/>
   <path id="Fill-16" sketch:type="MSShapeGroup" filter="url(#dropShadow)" fill="#fff" d="m162.41 64.009c1.21 0 2.18-0.954 2.18-2.25 0-1.274-0.97-2.235-2.18-2.235-1.23 0-2.19 0.961-2.19 2.235 0 1.296 0.96 2.25 2.19 2.25"/>
   <path id="Fill-17" sketch:type="MSShapeGroup" fill="#fff" d="m161.84 63.318h-0.47v-3.104h1.18c0.73 0 1.1 0.271 1.1 0.883 0 0.555-0.35 0.798-0.81 0.854l0.88 1.367h-0.52l-0.82-1.345h-0.54v1.345"/>
   <path id="Fill-18" sketch:type="MSShapeGroup" filter="url(#dropShadow)" fill="#fff" d="m162.4 61.574c0.4 0 0.76-0.028 0.76-0.505 0-0.385-0.35-0.456-0.68-0.456h-0.64v0.961h0.56"/>
   <path id="Fill-19" sketch:type="MSShapeGroup" filter="url(#dropShadow)" fill="#fff" d="m128.59 59.617c1.2 0 2.17-0.663 2.17-1.48 0-0.818-0.97-1.481-2.17-1.481-1.19 0-2.17 0.663-2.17 1.481 0 0.817 0.98 1.48 2.17 1.48"/>
   <path id="Fill-20" sketch:type="MSShapeGroup" filter="url(#dropShadow)" fill="#fff" d="m157.41 64.206s-0.63-1.674-0.28-2.441c0.35-0.768-0.07-0.838-0.42-0.838h-3.14s-2.09 3.07-2.58 4.117c-0.49 1.046-3.35 8.721-7.26 8.721 0 0-2.51 0.377-1.75-4.674 0.29 0.133 0.78 0.278 1.54 0.278 1.4 0 5.66-1.186 5.66-6.139 0 0 0.28-2.721-3.14-2.721-1.27 0-6.85 1.143-8.15 8.096-0.83 1.035-3.03 3.625-4.2 3.625-1.47 0 0.69-4.744 1.25-6.279 0.21-0.579 0.76-2.098 1.36-3.768h3.39l0.42-1.325h-3.33c0.84-2.358 1.65-4.605 1.65-4.605h-4.11s-0.72 2.028-1.6 4.605h-2.38l-0.35 1.325h2.28c-0.95 2.801-1.99 5.922-2.52 7.753-0.94 0.9-2.29 2.015-3.25 2.015 0 0-0.91 0.209 0.21-2.93 1.12-3.14 3.21-8.094 3.21-8.094h-4.12s-2.58 5.902-3.48 8.821c-1.3 1.191-3.91 3.419-3.43 1.57l3.81-10.403h-4.1l-2.33 6.469c-0.59 1.885-2.07 3.877-3.33 4.736-0.36 0.243-0.65 0.325-0.78 0.219-0.2-0.161-0.23-0.764 0.07-1.496 0.48-1.168 3.46-9.916 3.46-9.916h-4.33s-2.41 7.955-2.86 9.014c-0.51 1.224-0.92 3.082-0.39 4.288 0.2 0.46 0.51 0.771 0.94 0.924 1.39 0.507 4.23-0.571 5.67-3.52 0 0-0.22 3.737 2.29 3.737 0 0 2.07 0.414 4.95-3.021 0.1 1.578 0.79 2.951 2.17 2.951 1.26 0 3.46-1.413 5.22-3.281-0.04 1.867 0.82 3.351 2.11 3.351 1.39 0 3.2-0.895 6.3-4.684 0.14 1.734 0.93 5.033 4.79 5.033 5.23 0 8.23-3.768 10.81-10.884 0 0 2.03 2.302 2.03 5.511 0 3.21-3.42 4.605-4.26 4.605s-2.09-0.977-2.3-1.326c-0.21-0.348-1.33 0.14-0.7 1.187 0.63 1.046 1.61 1.465 3.56 1.465s7.18-1.326 7.18-6.838c0 0-0.13-2.651-1.46-5.233"/>
   <path id="Fill-21" sketch:type="MSShapeGroup" fill="#fff" d="m145.83 63.579c2.07 0 0.37 4.412-3.52 4.175 0.47-1.203 1.79-4.175 3.52-4.175"/>
   <path id="Fill-22" sketch:type="MSShapeGroup" filter="url(#dropShadow)" fill="#fff" d="m107.45 68.672c0 5.442-2.51 8.512-11.02 8.512-8.512 0-11.023-5.233-11.023-9.768s2.651-6.977 3.976-6.977c1.326 0 1.256 1.326 1.256 1.326 0 1.046-0.837 1.604-0.837 1.604-3.279 2.442-2.721 5.094-2.721 5.094 0 5.721 6.489 6.977 8.861 6.977s6.488-1.745 6.488-4.884c0-3.14-0.84-4.326-2.79-6.419-1.954-2.093-4.466-3.07-4.466-6.698s4.605-5.024 8.236-5.024c5.58 0 7.67 3.768 7.67 5.582s-1.53 1.814-1.53 1.814c-1.4 0-1.54-1.395-1.54-1.395-0.77-3.21-2.93-3.768-4.53-3.977 0 0-5.515-0.977-5.515 1.814 0 0-0.349 1.326 2.795 3.558 3.14 2.233 6.69 5.652 6.69 8.861"/>
   <path id="Fill-23" sketch:type="MSShapeGroup" filter="url(#dropShadow)" fill="#fff" d="m85.957 77.011c-1.185 0.211-3.646-1.019-5.214-4.777 1.134-1.576 1.903-3.551 2.159-5.62l-1.095-0.046c-0.089 0.675-0.587 2.506-1.577 4.244-1.437-4.482-1.615-4.883-1.615-4.883s3.101-0.729 3.101-3.374-1.733-2.645-2.326-2.645c-1.413 0-3.192 0.73-3.192 3.511 0 0.63 0.134 1.422 0.343 2.278-0.981 0.278-6.18 1.951-6.18 6.204 0 0 0.046 3.785 4.332 3.785 1.745 0 3.332-0.71 4.639-1.875 0.62 1.608 2.182 4.566 5.439 4.566 0 0 2.6 0.228 2.6-0.821 0 0-0.137-0.775-1.414-0.547"/>
   <path id="Fill-24" sketch:type="MSShapeGroup" fill="#fff" d="m75.013 74.548s-2.326 0.365-2.326-2.553c0-2.663 2.731-4.527 4.145-5.215 0.696 2.378 1.757 4.933 2.099 5.853-1.009 1.109-2.303 1.915-3.918 1.915"/>
   <path id="Fill-25" sketch:type="MSShapeGroup" fill="#fff" d="m79.39 61.018c-1.094 0-1.55 0.762-1.55 1.947 0 1.186 0.182 1.916 0.684 1.916s1.737-1.506 1.687-2.645c-0.045-1.049-0.821-1.218-0.821-1.218"/>
  </g>
 </g>
</svg>
