<?xml version="1.0" encoding="UTF-8" standalone="no"?>
<svg xmlns:sketch="http://www.bohemiancoding.com/sketch/ns" xmlns="http://www.w3.org/2000/svg" xmlns:xlink="http://www.w3.org/1999/xlink" version="1.1" viewBox="0 0 188 32">
 <filter id="dropShadow">
  <feGaussianBlur stdDeviation="1" in="SourceAlpha"/>
  <feOffset dx="0.1" dy="0"/>
  <feMerge>
   <feMergeNode/>
   <feMergeNode in="SourceGraphic"/>
  </feMerge>
 </filter>
<!-- Generator: Sketch 3.3.1 (12002) - http://www.bohemiancoding.com/sketch -->
 <title>Holiday_Inn</title>
 <desc>Created with Sketch.</desc>
 <g id="Page-1" fill-rule="evenodd" sketch:type="MSPage" fill="none">
  <g id="Holiday_Inn" filter="url(#dropShadow)" fill="#fff" sketch:type="MSLayerGroup">
   <path id="Fill-2" sketch:type="MSShapeGroup" d="m52.829 11.552v2.178h-4.25c0.456 2.457 0.911 4.914 2.001 7.229 1.091 2.313 2.817 4.484 4.543 6.656l-2.028 1.69c-1.815-2.317-3.631-4.634-4.832-7.23-1.202-2.596-1.791-5.471-2.379-8.345h-7.086l3.016 14.922h-2.562l-3.187-14.922h-5.138v-2.178h4.696l-2.134-10.952h2.561l2.307 10.952h7.469c0.088-1.923 0.175-3.845 0.595-5.628 0.42-1.782 1.172-3.425 1.925-5.067h2.561c-0.704 1.784-1.408 3.568-1.806 5.351-0.399 1.782-0.492 3.563-0.585 5.344h4.313"/>
   <path id="Fill-3" sketch:type="MSShapeGroup" d="m122.54 11.744l2.3 10.394c0.19 0.823 0.33 1.656 0.27 2.774s-0.28 2.508-0.7 3.554c-0.43 1.046-1.07 1.748-2.08 2.303-1.02 0.555-2.42 0.963-3.79 0.912-1.38-0.052-2.73-0.563-3.72-1.29-0.99-0.726-1.62-1.669-1.9-2.712l2.38 0.024c0.15 0.638 0.59 1.184 1.49 1.581s2.25 0.646 3.38 0.322c1.12-0.323 2.02-1.218 2.48-2.17s0.49-1.962 0.45-2.781-0.24-1.424-0.38-2.042l-0.3-1.37c-0.31 0.469-0.71 0.878-1.18 1.195-1.45 0.986-3.49 1.024-5.28 0.078-0.6-0.302-1.19-0.693-1.73-1.148-0.21 0.381-0.53 0.686-1.17 0.993-0.64 0.308-1.59 0.619-2.49 0.595-0.91-0.023-1.76-0.381-2.39-0.707-0.63-0.324-1.04-0.617-1.38-0.974-0.4 0.368-0.85 0.669-1.44 0.94-0.6 0.271-1.34 0.512-2.07 0.582-0.72 0.069-1.43-0.034-2.23-0.208-0.79-0.174-1.66-0.419-2.508-0.726-0.914 0.568-1.999 0.884-2.992 0.86s-1.897-0.388-2.552-0.775c-0.657-0.387-1.066-0.798-1.343-1.291-0.415 0.525-0.934 0.964-1.612 1.342-0.678 0.379-1.516 0.696-2.376 0.801-0.86 0.104-1.742-0.005-2.466-0.298-0.725-0.293-1.293-0.77-1.681-1.367-0.422 0.538-0.969 0.982-1.55 1.26-0.581 0.28-1.196 0.393-1.826 0.344-0.631-0.049-1.278-0.261-1.86-0.591-0.583-0.331-1.102-0.779-1.515-1.309-0.447 0.545-0.999 1.004-1.629 1.351-0.63 0.346-1.337 0.579-2.159 0.668-0.822 0.09-1.759 0.035-2.554-0.386-0.794-0.421-1.446-1.208-1.922-1.912s-0.775-1.325-1.047-2.15-0.516-1.855-0.666-2.895c-0.61 0.262-1.225 0.445-1.843 0.55 0.111 0.94 0.049 1.903-0.171 2.787-0.221 0.883-0.6 1.688-1.128 2.296-0.528 0.607-1.205 1.018-2.083 1.296-0.878 0.279-1.956 0.426-2.973 0.234-1.016-0.192-1.97-0.724-2.716-1.477-0.746-0.754-1.284-1.729-1.479-2.785-0.194-1.057-0.045-2.195 0.238-3.137 0.284-0.941 0.702-1.686 1.261-2.304s1.258-1.109 2.095-1.392c0.836-0.283 1.81-0.358 2.7-0.199 0.891 0.159 1.699 0.551 2.287 1.006s0.957 0.973 1.154 1.555c0.425-0.051 0.849-0.101 1.226-0.212s0.706-0.281 1.035-0.451c-0.431-1.713-0.647-3.486-0.631-5.004 0.016-1.517 0.264-2.779 0.631-3.891 0.366-1.11 0.851-2.071 1.443-2.734 0.591-0.662 1.291-1.027 2.001-1.164 0.711-0.138 1.432-0.048 1.973 0.236s0.901 0.763 1.176 1.462c0.275 0.7 0.464 1.62 0.432 2.788-0.032 1.167-0.284 2.583-0.816 3.944-0.531 1.361-1.341 2.668-2.013 3.574-0.672 0.907-1.206 1.415-1.819 1.81 0.159 0.877 0.362 1.747 0.557 2.451 0.195 0.703 0.382 1.24 0.669 1.787 0.286 0.546 0.672 1.102 1.112 1.491 0.442 0.388 0.938 0.61 1.591 0.667 0.654 0.056 1.464-0.053 2.039-0.36 0.574-0.308 0.913-0.813 1.109-1.365 0.195-0.553 0.262-1.153 0.151-1.722l-1.145-5.892h2.156l1.024 5.377c0.116 0.608 0.365 1.187 0.647 1.748s0.627 1.099 0.969 1.415c0.341 0.317 0.679 0.412 1.043 0.438 0.365 0.026 0.755-0.019 1.1-0.152 0.346-0.133 0.646-0.355 0.874-0.635-0.22-1.06-0.236-2.162-0.044-3.274 0.191-1.113 0.59-2.236 1.176-3.07 0.585-0.834 1.356-1.38 2.158-1.687 0.801-0.307 1.632-0.375 2.237-0.33 0.605 0.044 0.985 0.201 1.285 0.463-0.343-0.67-0.614-1.377-0.815-2.1-0.201-0.724-0.331-1.464-0.336-2.451-0.006-0.988 0.113-2.222 0.428-3.235 0.316-1.013 0.827-1.806 1.491-2.282 0.666-0.476 1.484-0.635 2.238-0.555 0.752 0.081 1.439 0.402 1.883 0.985s0.644 1.427 0.784 2.278c0.139 0.85 0.219 1.707 0.082 2.91-0.137 1.204-0.49 2.755-0.884 4.198s-0.828 2.778-1.335 4.086c-0.108 0.664-0.103 1.345 0.02 2.074 0.123 0.731 0.366 1.51 0.663 2.037 0.296 0.527 0.647 0.802 1.034 0.99 0.387 0.189 0.809 0.292 1.253 0.282 0.442-0.009 0.907-0.131 1.2-0.243s0.414-0.214 0.398-0.752c-0.017-0.537-0.171-1.511-0.146-2.559 0.026-1.048 0.228-2.17 0.758-3.127s1.387-1.748 2.384-2.193c1-0.445 2.14-0.544 2.93-0.441 0.79 0.104 1.22 0.41 1.4 0.457 0.19 0.048 0.12-0.164 0.52-0.307 0.39-0.142 1.25-0.215 1.66 0.104 0.42 0.318 0.38 1.027 0.52 1.998 0.14 0.972 0.45 2.205 0.69 3.216 0.23 1.011 0.4 1.799 0.67 2.429 0.26 0.63 0.63 1.101 1.09 1.347 0.46 0.247 1.01 0.269 1.55 0.148 0.54-0.12 1.08-0.381 1.42-0.742s0.48-0.821 0.56-1.2c0.09-0.379 0.16-0.682 0.11-0.976l-1.07-6.285h2.17l1.29 6.277c0.06 0.281 0.07 0.569 0.2 0.933s0.33 0.809 0.64 1.166c0.63 0.734 1.68 1.047 2.6 0.838 0.46-0.104 0.9-0.333 1.26-0.657 0.73-0.66 1.02-1.72 0.81-2.664-0.1-1.842-0.8-3.601-1-4.5-0.19-0.901-0.2-0.901-0.2-0.902l-0.11-0.491h2.24zm-61.253 3.931c-0.273-0.145-0.508-0.321-0.715-0.522-0.206-0.201-0.383-0.43-0.514-0.71-0.13-0.28-0.216-0.613-0.241-0.95-0.373-0.01-0.746 0.049-1.156 0.179s-0.857 0.331-1.216 0.745c-0.36 0.413-0.631 1.039-0.741 1.658-0.111 0.62-0.061 1.232 0.068 1.866 0.128 0.634 0.335 1.289 0.815 1.801s1.232 0.881 2.012 0.99 1.588-0.043 2.162-0.422c0.574-0.377 0.916-0.981 1.077-1.605s0.143-1.269 0.018-1.741-0.356-0.771-0.666-0.954c-0.32-0.074-0.63-0.189-0.903-0.335zm8.073-5.1c0.347-0.415 0.627-0.854 0.957-1.541 0.329-0.688 0.708-1.624 0.932-2.503 0.224-0.878 0.293-1.7 0.269-2.282-0.024-0.583-0.142-0.927-0.443-1.149s-0.786-0.321-1.214-0.184-0.798 0.511-1.168 1.174c-0.369 0.663-0.739 1.615-0.871 2.945-0.132 1.331-0.027 3.039 0.319 4.684 0.455-0.337 0.871-0.729 1.219-1.144zm18.077 10.031c0.558 0.083 1.022 0.053 1.506-0.119s0.987-0.485 1.275-0.878 0.359-0.865 0.399-1.675c0.039-0.809 0.045-1.957-0.139-2.687-0.182-0.73-0.553-1.044-0.982-1.262-0.43-0.219-0.917-0.342-1.412-0.359s-0.997 0.073-1.408 0.259-0.731 0.467-0.981 0.86-0.432 0.897-0.532 1.441c-0.099 0.543-0.117 1.127-0.036 1.79 0.082 0.663 0.265 1.405 0.682 1.876 0.417 0.47 1.07 0.669 1.628 0.754zm5.483-9.94c0.411-1.26 0.539-2.46 0.596-3.667 0.021-0.583 0.008-1.151-0.054-1.803-0.063-0.651-0.175-1.385-0.531-1.86-0.354-0.474-0.952-0.69-1.451-0.449-0.5 0.242-0.903 0.941-1.107 1.813s-0.21 1.917-0.086 2.875c0.124 0.957 0.378 1.826 0.679 2.66 0.3 0.835 0.647 1.636 1.054 2.406 0.372-0.644 0.683-1.325 0.9-1.975zm10.53 10.183c0.77-0.117 1.44-0.603 1.85-1.311s0.56-1.638 0.53-2.491c-0.03-0.854-0.25-1.629-0.66-2.214-0.4-0.585-1-0.978-1.58-1.108-0.57-0.13-1.12 0.005-1.62 0.202-0.5 0.196-0.94 0.454-1.27 1.166-0.34 0.713-0.56 1.879-0.5 2.85 0.06 0.97 0.4 1.744 1 2.258 0.61 0.513 1.48 0.764 2.25 0.648z"/>
   <path id="Fill-4" sketch:type="MSShapeGroup" d="m143 19.814c-1.37 0.467-2.74 0.937-3.95 1.308s-2.27 0.643-2.88 1.076c-0.62 0.432-0.79 1.026-0.44 1.531 0.35 0.506 1.22 0.924 2.3 1.098s2.37 0.103 3.54-0.287c1.18-0.389 2.23-1.096 2.94-2.064 0.72-0.968 1.09-2.197 0.99-3.864-0.11-1.668-0.69-3.774-1.58-5.704-0.89-1.929-2.09-3.682-3.48-4.64-1.4-0.957-2.99-1.118-3.89-0.744-0.89 0.375-1.1 1.286-0.95 2.259 0.15 0.974 0.65 2.01 1.41 2.884 0.77 0.874 1.79 1.586 2.91 2.023l-1.41 1.793c-1.18-0.41-2.24-1.12-3.22-2.202s-1.87-2.534-2.19-3.958c-0.33-1.423-0.08-2.817 0.52-3.802s1.55-1.562 2.54-1.779c0.99-0.219 2.01-0.078 2.99 0.172 0.98 0.249 1.92 0.607 3.15 1.574 1.24 0.967 2.76 2.542 4.04 4.606 1.27 2.064 2.29 4.615 2.44 6.988 0.14 2.374-0.57 4.569-1.7 6.063-1.14 1.494-2.68 2.286-4.38 2.736-1.69 0.449-3.54 0.556-5.1 0.385-1.56-0.17-2.84-0.619-3.78-1.21-0.95-0.591-1.56-1.325-1.79-2.106-0.24-0.78-0.11-1.608 0.49-2.29s1.66-1.22 3.33-1.811 3.94-1.235 6.25-1.7l0.9 1.665"/>
   <path id="Fill-5" sketch:type="MSShapeGroup" d="m149.25 13.387c0.19-0.479 0.93-0.658 1.8-0.843 0.87-0.184 1.87-0.375 2.39-0.082 0.51 0.293 0.53 1.071 0.63 2.009s0.28 2.037 0.65 1.957c0.37-0.081 0.92-1.341 1.49-2.212 0.56-0.871 1.13-1.354 1.71-1.68s1.17-0.494 1.93-0.341c0.77 0.154 1.7 0.628 2.31 1.439 0.62 0.811 0.91 1.959 1.24 3.217 0.34 1.258 0.72 2.625 1.26 3.407 0.53 0.783 1.21 0.981 1.97 0.983 0.76 0.004 1.6-0.188 2.05-0.739 0.44-0.553 0.49-1.465 0.09-2.759-0.4-1.295-1.25-2.969-1-3.955 0.25-0.985 1.59-1.279 2.32-0.453s0.84 2.775 1.11 3.133c0.27 0.357 0.71-0.876 1.22-1.849s1.1-1.687 1.85-2.058c0.76-0.371 1.68-0.399 2.57-0.177 0.88 0.222 1.74 0.694 2.3 1.687 0.56 0.992 0.83 2.505 1.29 3.903 0.46 1.399 1.11 2.682 1.89 3.247 0.78 0.564 1.68 0.409 2.34 0.22 0.65-0.189 1.05-0.412 1.37-0.731l1.15 1.025c-0.41 0.615-0.99 1.107-1.81 1.485-0.83 0.378-1.89 0.643-3.12 0.526-1.23-0.116-2.62-0.614-3.61-1.628-0.98-1.015-1.56-2.546-1.9-3.611s-0.43-1.664-0.78-1.973c-0.35-0.31-0.95-0.332-1.36 0.178s-0.63 1.552-0.92 2.834c-0.3 1.283-0.66 2.806-1.3 3.532-0.65 0.726-1.59 0.656-2.12 0.299s-0.66-1.001-0.96-1.056-0.78 0.481-1.77 0.89c-0.99 0.41-2.49 0.694-3.59 0.354-1.09-0.34-1.79-1.304-2.3-2.157-0.51-0.854-0.84-1.595-1.1-2.541s-0.44-2.096-0.91-2.679c-0.46-0.582-1.2-0.597-1.75 0.234-0.55 0.83-0.9 2.505-1.24 3.869-0.34 1.365-0.66 2.419-1.22 2.94-0.57 0.52-1.38 0.509-1.8 0.105-0.42-0.403-0.45-1.198-0.65-2.233-0.2-1.033-0.58-2.307-0.76-3.366-0.19-1.057-0.18-1.9-0.38-2.315-0.2-0.414-0.61-0.402-0.99-0.33s-0.72 0.203-1.07-0.121-0.7-1.105-0.52-1.584"/>
   <path id="Fill-6" sketch:type="MSShapeGroup" d="m75.734 7.417c0.779 0 1.335 0.684 1.335 1.493 0 0.869-0.556 1.553-1.335 1.553s-1.336-0.684-1.336-1.553c0-0.809 0.557-1.493 1.336-1.493"/>
   <path id="Fill-7" sketch:type="MSShapeGroup" d="m19.784 20.71c0.7 0 1.528-0.046 1.951-0.557 0.424-0.511 0.424-1.32 0-1.832-0.423-0.51-1.251-0.557-1.951-0.557h-6.403l0.384 2.946h6.019"/>
   <path id="Fill-8" sketch:type="MSShapeGroup" d="m12.63 25.041c0.436 0.546 0.989 1.164 1.653 1.176 0.663 0.013 1.296-0.492 1.431-1.142s-0.345-1.326-0.782-1.873l-3.995-5.005-2.063 2.139 3.756 4.705"/>
   <path id="Fill-9" sketch:type="MSShapeGroup" d="m5.085 7.58c-0.631-0.303-1.396-0.621-2-0.344-0.603 0.276-0.954 1.006-0.794 1.65 0.161 0.645 0.886 1.045 1.516 1.348l5.771 2.778 0.931-2.821-5.424-2.611"/>
   <path id="Fill-10" sketch:type="MSShapeGroup" d="m19.854 11.751c0.437-0.547 0.917-1.223 0.782-1.872-0.135-0.65-0.768-1.155-1.431-1.143-0.664 0.013-1.217 0.63-1.653 1.177l-3.995 5.005 2.542 1.538 3.755-4.705"/>
   <path id="Fill-11" sketch:type="MSShapeGroup" d="m1.65 15.367c-0.631 0.303-1.357 0.704-1.517 1.348s0.191 1.374 0.794 1.65c0.604 0.277 1.369-0.04 2-0.344l5.77-2.777-1.624-2.488-5.423 2.611"/>
   <path id="Fill-12" sketch:type="MSShapeGroup" d="m13.687 6.058c-0.155-0.682-0.384-1.479-0.976-1.779-0.592-0.299-1.381-0.121-1.786 0.406-0.404 0.526-0.266 1.344-0.111 2.026l1.419 6.245 2.788-1.027-1.334-5.871"/>
   <path id="Fill-13" sketch:type="MSShapeGroup" d="m4.226 23.427c-0.156 0.682-0.296 1.499 0.108 2.026 0.403 0.527 1.193 0.708 1.785 0.409s0.822-1.095 0.979-1.777l1.429-6.243-2.957-0.283-1.344 5.868"/>
  </g>
 </g>
</svg>
