<?xml version="1.0" encoding="UTF-8" standalone="no"?>
<svg viewBox="0 0 188 32" version="1.1" xmlns="http://www.w3.org/2000/svg" xmlns:xlink="http://www.w3.org/1999/xlink" xmlns:sketch="http://www.bohemiancoding.com/sketch/ns">

    <filter id="dropShadow">
        <feGaussianBlur in="SourceAlpha" stdDeviation="1" />
        <feOffset dx="0.1" dy="0" />
        <feMerge>
             <feMergeNode />
            <feMergeNode in="SourceGraphic" />
        </feMerge>
  </filter>

    <!-- Generator: Sketch 3.3.1 (12002) - http://www.bohemiancoding.com/sketch -->
    <title>Holiday_Inn</title>
    <desc>Created with Sketch.</desc>
    <defs></defs>
    <g id="Page-1" stroke="none" stroke-width="1" fill="none" fill-rule="evenodd" sketch:type="MSPage">
        <g id="Holiday_Inn" sketch:type="MSLayerGroup" fill="#fff" filter="url(#dropShadow)">
            <path d="M52.829,11.552 L52.829,13.73 L48.579,13.73 C49.035,16.187 49.49,18.644 50.58,20.959 C51.671,23.272 53.397,25.443 55.123,27.615 L53.095,29.305 C51.28,26.988 49.464,24.671 48.263,22.075 C47.061,19.479 46.472,16.604 45.884,13.73 L38.798,13.73 L41.814,28.652 L39.252,28.652 L36.065,13.73 L30.927,13.73 L30.927,11.552 L35.623,11.552 L33.489,0.6 L36.05,0.6 L38.357,11.552 L45.826,11.552 C45.914,9.629 46.001,7.707 46.421,5.924 C46.841,4.142 47.593,2.499 48.346,0.857 L50.907,0.857 C50.203,2.641 49.499,4.425 49.101,6.208 C48.702,7.99 48.609,9.771 48.516,11.552 L52.829,11.552" id="Fill-2" sketch:type="MSShapeGroup"></path>
            <path d="M122.539,11.744 L124.845,22.138 C125.028,22.961 125.173,23.794 125.111,24.912 C125.048,26.03 124.834,27.42 124.407,28.466 C123.982,29.512 123.344,30.214 122.327,30.769 C121.309,31.324 119.911,31.732 118.536,31.681 C117.162,31.629 115.812,31.118 114.821,30.391 C113.831,29.665 113.199,28.722 112.924,27.679 L115.302,27.703 C115.449,28.341 115.89,28.887 116.788,29.284 C117.687,29.681 119.043,29.93 120.167,29.606 C121.293,29.283 122.187,28.388 122.65,27.436 C123.113,26.484 123.144,25.474 123.102,24.655 C123.059,23.836 122.858,23.231 122.721,22.613 L122.416,21.243 C122.11,21.712 121.711,22.121 121.244,22.438 C119.786,23.424 117.753,23.462 115.958,22.516 C115.359,22.214 114.766,21.823 114.228,21.368 C114.021,21.749 113.695,22.054 113.058,22.361 C112.42,22.669 111.469,22.98 110.567,22.956 C109.664,22.933 108.811,22.575 108.18,22.249 C107.549,21.925 107.141,21.632 106.796,21.275 C106.405,21.643 105.954,21.944 105.358,22.215 C104.761,22.486 104.02,22.727 103.294,22.797 C102.567,22.866 101.855,22.763 101.063,22.589 C100.272,22.415 99.4,22.17 98.552,21.863 C97.638,22.431 96.553,22.747 95.56,22.723 C94.567,22.699 93.663,22.335 93.008,21.948 C92.351,21.561 91.942,21.15 91.665,20.657 C91.25,21.182 90.731,21.621 90.053,21.999 C89.375,22.378 88.537,22.695 87.677,22.8 C86.817,22.904 85.935,22.795 85.211,22.502 C84.486,22.209 83.918,21.732 83.53,21.135 C83.108,21.673 82.561,22.117 81.98,22.395 C81.399,22.675 80.784,22.788 80.154,22.739 C79.523,22.69 78.876,22.478 78.294,22.148 C77.711,21.817 77.192,21.369 76.779,20.839 C76.332,21.384 75.78,21.843 75.15,22.19 C74.52,22.536 73.813,22.769 72.991,22.858 C72.169,22.948 71.232,22.893 70.437,22.472 C69.643,22.051 68.991,21.264 68.515,20.56 C68.039,19.856 67.74,19.235 67.468,18.41 C67.196,17.585 66.952,16.555 66.802,15.515 C66.192,15.777 65.577,15.96 64.959,16.065 C65.07,17.005 65.008,17.968 64.788,18.852 C64.567,19.735 64.188,20.54 63.66,21.148 C63.132,21.755 62.455,22.166 61.577,22.444 C60.699,22.723 59.621,22.87 58.604,22.678 C57.588,22.486 56.634,21.954 55.888,21.201 C55.142,20.447 54.604,19.472 54.409,18.416 C54.215,17.359 54.364,16.221 54.647,15.279 C54.931,14.338 55.349,13.593 55.908,12.975 C56.467,12.357 57.166,11.866 58.003,11.583 C58.839,11.3 59.813,11.225 60.703,11.384 C61.594,11.543 62.402,11.935 62.99,12.39 C63.578,12.845 63.947,13.363 64.144,13.945 C64.569,13.894 64.993,13.844 65.37,13.733 C65.747,13.622 66.076,13.452 66.405,13.282 C65.974,11.569 65.758,9.796 65.774,8.278 C65.79,6.761 66.038,5.499 66.405,4.387 C66.771,3.277 67.256,2.316 67.848,1.653 C68.439,0.991 69.139,0.626 69.849,0.489 C70.56,0.351 71.281,0.441 71.822,0.725 C72.363,1.009 72.723,1.488 72.998,2.187 C73.273,2.887 73.462,3.807 73.43,4.975 C73.398,6.142 73.146,7.558 72.614,8.919 C72.083,10.28 71.273,11.587 70.601,12.493 C69.929,13.4 69.395,13.908 68.782,14.303 C68.941,15.18 69.144,16.05 69.339,16.754 C69.534,17.457 69.721,17.994 70.008,18.541 C70.294,19.087 70.68,19.643 71.12,20.032 C71.562,20.42 72.058,20.642 72.711,20.699 C73.365,20.755 74.175,20.646 74.75,20.339 C75.324,20.031 75.663,19.526 75.859,18.974 C76.054,18.421 76.121,17.821 76.01,17.252 L74.865,11.36 L77.021,11.36 L78.045,16.737 C78.161,17.345 78.41,17.924 78.692,18.485 C78.974,19.046 79.319,19.584 79.661,19.9 C80.002,20.217 80.34,20.312 80.704,20.338 C81.069,20.364 81.459,20.319 81.804,20.186 C82.15,20.053 82.45,19.831 82.678,19.551 C82.458,18.491 82.442,17.389 82.634,16.277 C82.825,15.164 83.224,14.041 83.81,13.207 C84.395,12.373 85.166,11.827 85.968,11.52 C86.769,11.213 87.6,11.145 88.205,11.19 C88.81,11.234 89.19,11.391 89.49,11.653 C89.147,10.983 88.876,10.276 88.675,9.553 C88.474,8.829 88.344,8.089 88.339,7.102 C88.333,6.114 88.452,4.88 88.767,3.867 C89.083,2.854 89.594,2.061 90.258,1.585 C90.924,1.109 91.742,0.95 92.496,1.03 C93.248,1.111 93.935,1.432 94.379,2.015 C94.823,2.598 95.023,3.442 95.163,4.293 C95.302,5.143 95.382,6 95.245,7.203 C95.108,8.407 94.755,9.958 94.361,11.401 C93.967,12.844 93.533,14.179 93.026,15.487 C92.918,16.151 92.923,16.832 93.046,17.561 C93.169,18.292 93.412,19.071 93.709,19.598 C94.005,20.125 94.356,20.4 94.743,20.588 C95.13,20.777 95.552,20.88 95.996,20.87 C96.438,20.861 96.903,20.739 97.196,20.627 C97.489,20.515 97.61,20.413 97.594,19.875 C97.577,19.338 97.423,18.364 97.448,17.316 C97.474,16.268 97.676,15.146 98.206,14.189 C98.736,13.232 99.593,12.441 100.591,11.996 C101.59,11.551 102.732,11.452 103.52,11.555 C104.307,11.659 104.741,11.965 104.924,12.012 C105.108,12.06 105.042,11.848 105.437,11.705 C105.832,11.563 106.69,11.49 107.103,11.809 C107.515,12.127 107.483,12.836 107.622,13.807 C107.76,14.779 108.07,16.012 108.308,17.023 C108.545,18.034 108.71,18.822 108.978,19.452 C109.245,20.082 109.614,20.553 110.073,20.799 C110.531,21.046 111.079,21.068 111.62,20.947 C112.162,20.827 112.698,20.566 113.036,20.205 C113.375,19.844 113.517,19.384 113.604,19.005 C113.691,18.626 113.758,18.323 113.709,18.029 L112.645,11.744 L114.809,11.744 L116.098,18.021 C116.156,18.302 116.171,18.59 116.3,18.954 C116.429,19.318 116.63,19.763 116.937,20.12 C117.567,20.854 118.62,21.167 119.537,20.958 C120.005,20.854 120.444,20.625 120.797,20.301 C121.53,19.641 121.823,18.581 121.606,17.637 C121.512,15.795 120.811,14.036 120.613,13.137 C120.415,12.236 120.414,12.236 120.414,12.235 L120.305,11.744 L122.539,11.744 L122.539,11.744 Z M61.287,15.675 C61.014,15.53 60.779,15.354 60.572,15.153 C60.366,14.952 60.189,14.723 60.058,14.443 C59.928,14.163 59.842,13.83 59.817,13.493 C59.444,13.483 59.071,13.542 58.661,13.672 C58.251,13.802 57.804,14.003 57.445,14.417 C57.085,14.83 56.814,15.456 56.704,16.075 C56.593,16.695 56.643,17.307 56.772,17.941 C56.9,18.575 57.107,19.23 57.587,19.742 C58.067,20.254 58.819,20.623 59.599,20.732 C60.379,20.841 61.187,20.689 61.761,20.31 C62.335,19.933 62.677,19.329 62.838,18.705 C62.999,18.081 62.981,17.436 62.856,16.964 C62.731,16.492 62.5,16.193 62.19,16.01 C61.87,15.936 61.56,15.821 61.287,15.675 L61.287,15.675 Z M69.36,10.575 C69.707,10.16 69.987,9.721 70.317,9.034 C70.646,8.346 71.025,7.41 71.249,6.531 C71.473,5.653 71.542,4.831 71.518,4.249 C71.494,3.666 71.376,3.322 71.075,3.1 C70.774,2.878 70.289,2.779 69.861,2.916 C69.433,3.053 69.063,3.427 68.693,4.09 C68.324,4.753 67.954,5.705 67.822,7.035 C67.69,8.366 67.795,10.074 68.141,11.719 C68.596,11.382 69.012,10.99 69.36,10.575 L69.36,10.575 Z M87.437,20.606 C87.995,20.689 88.459,20.659 88.943,20.487 C89.427,20.315 89.93,20.002 90.218,19.609 C90.506,19.216 90.577,18.744 90.617,17.934 C90.656,17.125 90.662,15.977 90.478,15.247 C90.296,14.517 89.925,14.203 89.496,13.985 C89.066,13.766 88.579,13.643 88.084,13.626 C87.589,13.609 87.087,13.699 86.676,13.885 C86.265,14.071 85.945,14.352 85.695,14.745 C85.445,15.138 85.263,15.642 85.163,16.186 C85.064,16.729 85.046,17.313 85.127,17.976 C85.209,18.639 85.392,19.381 85.809,19.852 C86.226,20.322 86.879,20.521 87.437,20.606 L87.437,20.606 Z M92.92,10.666 C93.331,9.406 93.459,8.206 93.516,6.999 C93.537,6.416 93.524,5.848 93.462,5.196 C93.399,4.545 93.287,3.811 92.931,3.336 C92.577,2.862 91.979,2.646 91.48,2.887 C90.98,3.129 90.577,3.828 90.373,4.7 C90.169,5.572 90.163,6.617 90.287,7.575 C90.411,8.532 90.665,9.401 90.966,10.235 C91.266,11.07 91.613,11.871 92.02,12.641 C92.392,11.997 92.703,11.316 92.92,10.666 L92.92,10.666 Z M103.454,20.849 C104.225,20.732 104.894,20.246 105.301,19.538 C105.711,18.83 105.861,17.9 105.828,17.047 C105.796,16.193 105.582,15.418 105.174,14.833 C104.767,14.248 104.166,13.855 103.592,13.725 C103.017,13.595 102.467,13.73 101.97,13.927 C101.474,14.123 101.03,14.381 100.697,15.093 C100.365,15.806 100.144,16.972 100.203,17.943 C100.26,18.913 100.598,19.687 101.204,20.201 C101.81,20.714 102.683,20.965 103.454,20.849 L103.454,20.849 Z" id="Fill-3" sketch:type="MSShapeGroup"></path>
            <path d="M142.995,19.814 C141.628,20.281 140.262,20.751 139.05,21.122 C137.838,21.493 136.781,21.765 136.167,22.198 C135.551,22.63 135.378,23.224 135.728,23.729 C136.077,24.235 136.948,24.653 138.029,24.827 C139.11,25.001 140.402,24.93 141.574,24.54 C142.747,24.151 143.8,23.444 144.514,22.476 C145.227,21.508 145.601,20.279 145.497,18.612 C145.394,16.944 144.814,14.838 143.924,12.908 C143.033,10.979 141.832,9.226 140.436,8.268 C139.041,7.311 137.45,7.15 136.553,7.524 C135.655,7.899 135.451,8.81 135.6,9.783 C135.75,10.757 136.251,11.793 137.014,12.667 C137.776,13.541 138.798,14.253 139.92,14.69 L138.512,16.483 C137.334,16.073 136.269,15.363 135.29,14.281 C134.312,13.199 133.419,11.747 133.095,10.323 C132.77,8.9 133.015,7.506 133.616,6.521 C134.216,5.536 135.172,4.959 136.159,4.742 C137.148,4.523 138.169,4.664 139.149,4.914 C140.128,5.163 141.067,5.521 142.3,6.488 C143.535,7.455 145.065,9.03 146.337,11.094 C147.61,13.158 148.626,15.709 148.775,18.082 C148.924,20.456 148.208,22.651 147.076,24.145 C145.944,25.639 144.397,26.431 142.702,26.881 C141.007,27.33 139.163,27.437 137.601,27.266 C136.039,27.096 134.759,26.647 133.816,26.056 C132.872,25.465 132.264,24.731 132.027,23.95 C131.79,23.17 131.921,22.342 132.519,21.66 C133.115,20.978 134.178,20.44 135.847,19.849 C137.517,19.258 139.793,18.614 142.098,18.149 L142.995,19.814" id="Fill-4" sketch:type="MSShapeGroup"></path>
            <path d="M149.254,13.387 C149.444,12.908 150.179,12.729 151.049,12.544 C151.919,12.36 152.924,12.169 153.435,12.462 C153.947,12.755 153.968,13.533 154.068,14.471 C154.168,15.409 154.348,16.508 154.717,16.428 C155.087,16.347 155.645,15.087 156.209,14.216 C156.773,13.345 157.342,12.862 157.922,12.536 C158.501,12.21 159.09,12.042 159.853,12.195 C160.616,12.349 161.552,12.823 162.164,13.634 C162.777,14.445 163.066,15.593 163.403,16.851 C163.74,18.109 164.124,19.476 164.658,20.258 C165.191,21.041 165.873,21.239 166.633,21.241 C167.394,21.245 168.233,21.053 168.678,20.502 C169.123,19.949 169.173,19.037 168.773,17.743 C168.374,16.448 167.525,14.774 167.773,13.788 C168.021,12.803 169.365,12.509 170.092,13.335 C170.819,14.161 170.929,16.11 171.201,16.468 C171.474,16.825 171.909,15.592 172.421,14.619 C172.933,13.646 173.52,12.932 174.274,12.561 C175.029,12.19 175.949,12.162 176.836,12.384 C177.722,12.606 178.575,13.078 179.136,14.071 C179.697,15.063 179.969,16.576 180.429,17.974 C180.89,19.373 181.543,20.656 182.321,21.221 C183.1,21.785 184.005,21.63 184.659,21.441 C185.312,21.252 185.713,21.029 186.028,20.71 L187.181,21.735 C186.771,22.35 186.19,22.842 185.366,23.22 C184.543,23.598 183.478,23.863 182.249,23.746 C181.021,23.63 179.63,23.132 178.645,22.118 C177.66,21.103 177.081,19.572 176.743,18.507 C176.405,17.442 176.307,16.843 175.958,16.534 C175.609,16.224 175.009,16.202 174.598,16.712 C174.187,17.222 173.967,18.264 173.675,19.546 C173.384,20.829 173.023,22.352 172.375,23.078 C171.727,23.804 170.792,23.734 170.26,23.377 C169.728,23.02 169.601,22.376 169.299,22.321 C168.997,22.266 168.521,22.802 167.533,23.211 C166.544,23.621 165.043,23.905 163.944,23.565 C162.846,23.225 162.15,22.261 161.639,21.408 C161.128,20.554 160.801,19.813 160.543,18.867 C160.285,17.921 160.096,16.771 159.632,16.188 C159.167,15.606 158.427,15.591 157.881,16.422 C157.333,17.252 156.978,18.927 156.641,20.291 C156.303,21.656 155.983,22.71 155.416,23.231 C154.849,23.751 154.037,23.74 153.618,23.336 C153.199,22.933 153.172,22.138 152.971,21.103 C152.769,20.07 152.393,18.796 152.208,17.737 C152.025,16.68 152.033,15.837 151.832,15.422 C151.63,15.008 151.219,15.02 150.841,15.092 C150.465,15.164 150.123,15.295 149.773,14.971 C149.423,14.647 149.066,13.866 149.254,13.387" id="Fill-5" sketch:type="MSShapeGroup"></path>
            <path d="M75.734,7.417 C76.513,7.417 77.069,8.101 77.069,8.91 C77.069,9.779 76.513,10.463 75.734,10.463 C74.955,10.463 74.398,9.779 74.398,8.91 C74.398,8.101 74.955,7.417 75.734,7.417" id="Fill-6" sketch:type="MSShapeGroup"></path>
            <path d="M19.784,20.71 C20.484,20.71 21.312,20.664 21.735,20.153 C22.159,19.642 22.159,18.833 21.735,18.321 C21.312,17.811 20.484,17.764 19.784,17.764 L13.381,17.764 L13.765,20.71 L19.784,20.71" id="Fill-7" sketch:type="MSShapeGroup"></path>
            <path d="M12.63,25.041 C13.066,25.587 13.619,26.205 14.283,26.217 C14.946,26.23 15.579,25.725 15.714,25.075 C15.849,24.425 15.369,23.749 14.932,23.202 L10.937,18.197 L8.874,20.336 L12.63,25.041" id="Fill-8" sketch:type="MSShapeGroup"></path>
            <path d="M5.085,7.58 C4.454,7.277 3.689,6.959 3.085,7.236 C2.482,7.512 2.131,8.242 2.291,8.886 C2.452,9.531 3.177,9.931 3.807,10.234 L9.578,13.012 L10.509,10.191 L5.085,7.58" id="Fill-9" sketch:type="MSShapeGroup"></path>
            <path d="M19.854,11.751 C20.291,11.204 20.771,10.528 20.636,9.879 C20.501,9.229 19.868,8.724 19.205,8.736 C18.541,8.749 17.988,9.366 17.552,9.913 L13.557,14.918 L16.099,16.456 L19.854,11.751" id="Fill-10" sketch:type="MSShapeGroup"></path>
            <path d="M1.65,15.367 C1.019,15.67 0.293,16.071 0.133,16.715 C-0.027,17.359 0.324,18.089 0.927,18.365 C1.531,18.642 2.296,18.325 2.927,18.021 L8.697,15.244 L7.073,12.756 L1.65,15.367" id="Fill-11" sketch:type="MSShapeGroup"></path>
            <path d="M13.687,6.058 C13.532,5.376 13.303,4.579 12.711,4.279 C12.119,3.98 11.33,4.158 10.925,4.685 C10.521,5.211 10.659,6.029 10.814,6.711 L12.233,12.956 L15.021,11.929 L13.687,6.058" id="Fill-12" sketch:type="MSShapeGroup"></path>
            <path d="M4.226,23.427 C4.07,24.109 3.93,24.926 4.334,25.453 C4.737,25.98 5.527,26.161 6.119,25.862 C6.711,25.563 6.941,24.767 7.098,24.085 L8.527,17.842 L5.57,17.559 L4.226,23.427" id="Fill-13" sketch:type="MSShapeGroup"></path>
        </g>
    </g>
</svg>