<?xml version="1.0" encoding="UTF-8" standalone="no"?>
<svg viewBox="0 0 196 187" version="1.1" xmlns="http://www.w3.org/2000/svg" xmlns:xlink="http://www.w3.org/1999/xlink" xmlns:sketch="http://www.bohemiancoding.com/sketch/ns">
    <!-- Generator: Sketch 3.3.1 (12002) - http://www.bohemiancoding.com/sketch -->
    <title>cake22</title>
    <desc>Created with Sketch.</desc>
    <defs>
        <path id="path-1" d="M0.315789474,3.40449608 L200,3.40449608 L200,192.543167 L0.315789474,192.543167 L0.315789474,3.40449608 Z"></path>
    </defs>
    <g id="Page-1" stroke="none" stroke-width="1" fill="none" fill-rule="evenodd" sketch:type="MSPage">
        <g id="cake22" sketch:type="MSLayerGroup" transform="translate(0.000000, -3.000000)">
            <g id="Group-8">
                <mask id="mask-2" sketch:name="Clip 2" fill="white">
                    <use xlink:href="#path-1"></use>
                </mask>
                <g id="Clip-2"></g>
                <path d="M179.442105,89.5781763 C180.552632,98.2995706 186.984211,105.381763 195.252632,107.457035 L195.252632,105.381763 C195.252632,96.6603688 188.178947,89.5991917 179.442105,89.5781763 L179.442105,89.5781763 Z" id="Fill-1" fill="rgb(51, 51, 51)" sketch:type="MSShapeGroup" mask="url(#mask-2)"></path>
                <path d="M0,173.392877 C0,182.119525 7.21578947,189.138671 15.9736842,189.138671 L179.357895,189.138671 C188.094737,189.138671 195.252632,182.140541 195.252632,173.392877 L195.252632,162.086588 L0,162.086588 L0,173.392877 Z" id="Fill-3" fill="rgb(51, 51, 51)" sketch:type="MSShapeGroup" mask="url(#mask-2)"></path>
                <path d="M46.3789474,108.113766 C57.0526316,108.113766 65.8947368,100.169942 67.2263158,89.6202071 L25.5368421,89.6202071 C26.8684211,100.169942 35.7105263,108.113766 46.3789474,108.113766 L46.3789474,108.113766 Z" id="Fill-4" fill="rgb(51, 51, 51)" sketch:type="MSShapeGroup" mask="url(#mask-2)"></path>
                <path d="M174.610526,103.001768 C169.242105,111.581308 159.747368,117.286992 148.952632,117.286992 C138.157895,117.286992 128.657895,111.581308 123.315789,103.001768 C117.947368,111.581308 108.447368,117.286992 97.6578947,117.286992 C86.8631579,117.286992 77.3842105,111.581308 72.0210526,103.001768 C66.6736842,111.581308 57.1736842,117.286992 46.3789474,117.286992 C35.5894737,117.286992 26.0263158,111.581308 20.6842105,103.001768 C16.1789474,110.204799 8.73684211,115.395605 0,116.877191 L0,135.018742 L195.252632,135.018742 L195.252632,116.877191 C186.515789,115.395605 179.110526,110.204799 174.610526,103.001768 L174.610526,103.001768 Z" id="Fill-5" fill="rgb(51, 51, 51)" sketch:type="MSShapeGroup" mask="url(#mask-2)"></path>
                <path d="M97.6578947,108.113766 C108.326316,108.113766 117.168421,100.169942 118.505263,89.6202071 L76.8315789,89.6202071 C78.1473684,100.169942 86.9842105,108.113766 97.6578947,108.113766 L97.6578947,108.113766 Z" id="Fill-6" fill="rgb(51, 51, 51)" sketch:type="MSShapeGroup" mask="url(#mask-2)"></path>
                <path d="M15.8105263,89.5781763 C7.07368421,89.5991917 0,96.6603688 0,105.381763 L0,107.457035 C8.26315789,105.381763 14.7,98.2995706 15.8105263,89.5781763 L15.8105263,89.5781763 Z" id="Fill-7" fill="rgb(51, 51, 51)" sketch:type="MSShapeGroup" mask="url(#mask-2)"></path>
            </g>
            <path d="M148.931579,108.113766 C159.621053,108.113766 168.442105,100.169942 169.778947,89.6202071 L128.105263,89.6202071 C129.421053,100.169942 138.263158,108.113766 148.931579,108.113766 L148.931579,108.113766 Z" id="Fill-9" fill="rgb(51, 51, 51)" sketch:type="MSShapeGroup"></path>
            <path d="M132.773684,15.7983329 C139.989474,15.7983329 145.968421,10.7493812 147,3.40449608 L118.542105,3.40449608 C119.573684,10.7493812 125.552632,15.7983329 132.773684,15.7983329 L132.773684,15.7983329 Z" id="Fill-10" fill="rgb(51, 51, 51)" sketch:type="MSShapeGroup"></path>
            <path d="M62.5631579,15.7983329 C69.7789474,15.7983329 75.7631579,10.7493812 76.7894737,3.40449608 L48.3157895,3.40449608 C49.3421053,10.7493812 55.3263158,15.7983329 62.5631579,15.7983329 L62.5631579,15.7983329 Z" id="Fill-11" fill="rgb(51, 51, 51)" sketch:type="MSShapeGroup"></path>
            <path d="M165.852632,22.1397323 C159.415789,21.4462238 153.7,17.747512 150.389474,12.4778985 C146.731579,18.3464511 140.194737,22.2658247 132.810526,22.2658247 C125.410526,22.2658247 118.894737,18.3464511 115.236842,12.4778985 C111.573684,18.3464511 105.057895,22.2658247 97.6789474,22.2658247 C90.2736842,22.2658247 83.7789474,18.3464511 80.1210526,12.4778985 C76.4368421,18.3464511 69.9421053,22.2658247 62.5631579,22.2658247 C55.1578947,22.2658247 48.5631579,18.3464511 44.8789474,12.4778985 C41.5894737,17.747512 36.2894737,21.4462238 29.4,22.1397323 L29.4,39.6455671 L165.852632,39.6455671 L165.852632,22.1397323 Z" id="Fill-12" fill="rgb(51, 51, 51)" sketch:type="MSShapeGroup"></path>
            <path d="M97.6578947,15.7983329 C104.873684,15.7983329 110.873684,10.7493812 111.884211,3.40449608 L83.4315789,3.40449608 C84.4578947,10.7493812 90.4421053,15.7983329 97.6578947,15.7983329 L97.6578947,15.7983329 Z" id="Fill-13" fill="rgb(51, 51, 51)" sketch:type="MSShapeGroup"></path>
            <path d="M165.852632,15.7773175 L165.852632,13.3605456 C165.852632,7.93857035 161.305263,3.40449608 155.857895,3.40449608 L153.636842,3.40449608 C154.563158,9.82995706 159.415789,14.8158626 165.852632,15.7773175 L165.852632,15.7773175 Z" id="Fill-14" fill="rgb(51, 51, 51)" sketch:type="MSShapeGroup"></path>
            <path d="M39.4526316,75.8708765 L155.857895,75.8708765 C161.305263,75.8708765 165.852632,71.5994948 165.852632,66.1827734 L165.852632,57.9762566 L29.4,57.9762566 L29.4,66.1827734 C29.4,71.5994948 34.0263158,75.8708765 39.4526316,75.8708765 L39.4526316,75.8708765 Z" id="Fill-15" fill="rgb(51, 51, 51)" sketch:type="MSShapeGroup"></path>
            <path d="M41.6736842,3.40449608 L39.4526316,3.40449608 C34.0263158,3.40449608 29.4,7.95958575 29.4,13.3763071 L29.4,15.7773175 C35.8368421,14.8158626 40.7473684,9.82995706 41.6736842,3.40449608 L41.6736842,3.40449608 Z" id="Fill-16" fill="rgb(51, 51, 51)" sketch:type="MSShapeGroup"></path>
        </g>
    </g>
</svg>