<?xml version="1.0" encoding="UTF-8" standalone="no"?>
<svg xmlns:sketch="http://www.bohemiancoding.com/sketch/ns" xmlns="http://www.w3.org/2000/svg" xmlns:xlink="http://www.w3.org/1999/xlink" version="1.1" viewBox="0 0 196 187"><!-- Generator: Sketch 3.3.1 (12002) - http://www.bohemiancoding.com/sketch -->
 <title>cake22</title>
 <desc>Created with Sketch.</desc>
 <defs>
  <path id="path-1" d="m0.31579 3.4045h199.68v189.14h-199.68l-0.00421-189.14z"/>
 </defs>
 <g id="Page-1" fill-rule="evenodd" sketch:type="MSPage" fill="none">
  <g id="cake22" transform="translate(0 -3)" fill="#333" sketch:type="MSLayerGroup">
   <g id="Group-8">
    <mask id="mask-2" sketch:name="Clip 2" fill="white">
     <use xlink:href="#path-1"/>
    </mask>
    <path id="Fill-1" sketch:type="MSShapeGroup" mask="url(#mask-2)" d="m179.44 89.578c1.11 8.722 7.54 15.802 15.81 17.882v-2.08c0-8.72-7.07-15.781-15.81-15.802z"/>
    <path id="Fill-3" sketch:type="MSShapeGroup" mask="url(#mask-2)" d="m0 173.39c0 8.73 7.2158 15.75 15.974 15.75h163.39c8.73 0 15.89-7 15.89-15.75v-11.3h-195.25v11.3z"/>
    <path id="Fill-4" sketch:type="MSShapeGroup" mask="url(#mask-2)" d="m46.379 108.11c10.674 0 19.516-7.94 20.847-18.49h-41.689c1.331 10.55 10.174 18.49 20.842 18.49z"/>
    <path id="Fill-5" sketch:type="MSShapeGroup" mask="url(#mask-2)" d="m174.61 103c-5.37 8.58-14.86 14.29-25.66 14.29-10.79 0-20.29-5.71-25.63-14.29-5.37 8.58-14.87 14.29-25.662 14.29-10.795 0-20.274-5.71-25.637-14.29-5.347 8.58-14.847 14.29-25.642 14.29-10.79 0-20.353-5.71-25.695-14.29-4.505 7.2-11.947 12.4-20.684 13.88v18.14h195.25v-18.14c-8.73-1.48-16.14-6.68-20.64-13.88z"/>
    <path id="Fill-6" sketch:type="MSShapeGroup" mask="url(#mask-2)" d="m97.658 108.11c10.672 0 19.512-7.94 20.852-18.49h-41.678c1.315 10.55 10.152 18.49 20.826 18.49z"/>
    <path id="Fill-7" sketch:type="MSShapeGroup" mask="url(#mask-2)" d="m15.811 89.578c-8.7373 0.021-15.811 7.082-15.811 15.802v2.08c8.2632-2.08 14.7-9.16 15.811-17.882z"/>
   </g>
   <path id="Fill-9" sketch:type="MSShapeGroup" d="m148.93 108.11c10.69 0 19.51-7.94 20.85-18.49h-41.67c1.31 10.55 10.15 18.49 20.82 18.49z"/>
   <path id="Fill-10" sketch:type="MSShapeGroup" d="m132.77 15.798c7.22 0 13.2-5.049 14.23-12.394l-28.46 0.0005c1.03 7.3445 7.01 12.394 14.23 12.394z"/>
   <path id="Fill-11" sketch:type="MSShapeGroup" d="m62.563 15.798c7.216 0 13.2-5.049 14.226-12.394l-28.473 0.0005c1.026 7.3445 7.01 12.394 14.247 12.394z"/>
   <path id="Fill-12" sketch:type="MSShapeGroup" d="m165.85 22.14c-6.43-0.694-12.15-4.392-15.46-9.662-3.66 5.868-10.2 9.788-17.58 9.788-7.4 0-13.92-3.92-17.57-9.788-3.67 5.868-10.18 9.788-17.561 9.788-7.405 0-13.9-3.92-17.558-9.788-3.684 5.868-10.179 9.788-17.558 9.788-7.405 0-14-3.92-17.684-9.788-3.29 5.27-8.59 8.968-15.479 9.662v17.506h136.45v-17.506z"/>
   <path id="Fill-13" sketch:type="MSShapeGroup" d="m97.658 15.798c7.212 0 13.212-5.049 14.222-12.394l-28.448 0.0005c1.026 7.3445 7.01 12.394 14.226 12.394z"/>
   <path id="Fill-14" sketch:type="MSShapeGroup" d="m165.85 15.777v-2.416c0-5.4224-4.54-9.9565-9.99-9.9565h-2.22c0.92 6.4255 5.78 11.412 12.21 12.372v0.001z"/>
   <path id="Fill-15" sketch:type="MSShapeGroup" d="m39.453 75.871h116.41c5.45 0 9.99-4.272 9.99-9.688v-8.207h-136.45v8.207c0 5.416 4.626 9.688 10.053 9.688z"/>
   <path id="Fill-16" sketch:type="MSShapeGroup" d="m41.674 3.4045h-2.221c-5.427 0-10.053 4.5551-10.053 9.9715v2.401c6.437-0.961 11.347-5.947 12.274-12.372v-0.0005z"/>
  </g>
 </g>
</svg>
