<?xml version="1.0" encoding="UTF-8" standalone="no"?>
<svg xmlns:sketch="http://www.bohemiancoding.com/sketch/ns" xmlns="http://www.w3.org/2000/svg" xmlns:xlink="http://www.w3.org/1999/xlink" version="1.1" viewBox="0 0 220 200"><!-- Generator: Sketch 3.3.1 (12002) - http://www.bohemiancoding.com/sketch -->
 <title>REI</title>
 <desc>Created with Sketch.</desc>
 <g id="Page-1" fill-rule="evenodd" sketch:type="MSPage" fill="none">
  <g id="REI" sketch:type="MSLayerGroup">
   <path id="Fill-1" sketch:type="MSShapeGroup" fill="transparent" d="m0.26 0.677h192.76v192.75h-192.76v-192.75z"/>
   <path id="Fill-2" sketch:type="MSShapeGroup" fill="#333" d="m35.464 38.168l-13.716 22.86 7.316-2.378-13.351 24.14 8.047-4.206-14.082 25.606 9.693-4.575-16.277 27.615h78.456v-9.87h1.829l10.424 9.87h20.667l-14.998-15 8.408-8.41-0.18-23.956h-23.224l-2.56 1.829v-6.401l23.954-23.774 22.86 22.677h4.94l20.48-20.117 20.49 20.3h3.47l-27.8-27.615-21.58 21.763-29.806-29.993-44.257 44.075-13.533-24.323 7.132 3.291-12.802-23.408zm18.471 45.354l-2.926 2.926-5.303-7.681 8.229 4.755zm10.973 8.412v30.906l-11.338-19.75 11.338-11.156zm25.603-2.377v12.433h-8.961v-3.838l8.961-8.595z"/>
   <path id="Fill-3" sketch:type="MSShapeGroup" fill="#333" d="m153.24 79.864v10.973h-18.66v6.218h19.02v11.705h-19.02v6.04h19.02v12.61h-36.2v-47.546h35.84"/>
   <path id="Fill-4" sketch:type="MSShapeGroup" fill="#333" d="m162.75 79.864h15.91v47.546h-15.91v-47.546z"/>
   <path id="Fill-5" sketch:type="MSShapeGroup" fill="#333" d="m182.32 84.071c0 2.194 1.83 3.84 3.84 3.84 2.19 0 4.02-1.646 4.02-3.84 0-2.195-1.83-3.841-4.02-3.841-2.01 0-3.84 1.646-3.84 3.841zm0.73 0c0-2.012 1.46-3.292 3.11-3.292 1.83 0 3.29 1.28 3.29 3.292 0 1.828-1.46 3.291-3.29 3.291-1.65 0-3.11-1.463-3.11-3.291zm1.65-2.378h1.82c1.1 0 1.47 0.549 1.47 1.28 0 0.915-0.37 1.281-1.1 1.281l1.28 2.011h-0.73l-1.28-2.011h-0.73v2.011h-0.73v-4.572zm0.73 2.012h0.73c0.55 0 1.28 0 1.28-0.732 0-0.548-0.55-0.731-1.1-0.731h-0.91v1.463z"/>
   <path id="Fill-6" sketch:type="MSShapeGroup" fill="#333" d="m3.826 143.87h5.486v3.29h-0.914l0.914 4.58 2.012-7.87h4.206l2.012 7.87 0.731-4.58h-0.731v-3.29h4.938v3.29h-0.915l-2.011 8.42h-4.389l-2.012-7.87-2.012 7.87h-4.389l-2.012-8.42h-0.914v-3.29"/>
   <path id="Fill-7" sketch:type="MSShapeGroup" fill="#333" d="m27.052 143.87h5.486v3.29h-0.914l0.914 4.58 2.012-7.87h4.206l2.012 7.87 0.731-4.58h-0.731v-3.29h4.938v3.29h-0.915l-2.011 8.42h-4.39l-2.011-7.87-2.012 7.87h-4.389l-2.012-8.42h-0.914v-3.29"/>
   <path id="Fill-8" sketch:type="MSShapeGroup" fill="#333" d="m50.278 143.87h5.486v3.29h-0.914l0.914 4.58 2.012-7.87h4.206l2.012 7.87 0.731-4.58h-0.731v-3.29h4.937v3.29h-0.914l-2.012 8.42h-4.389l-2.011-7.87-2.012 7.87h-4.389l-2.012-8.42h-0.914v-3.29"/>
   <path id="Fill-9" sketch:type="MSShapeGroup" fill="#333" d="m73.138 151.19h4.389v4.39h-4.389v-4.39z"/>
   <path id="Fill-10" sketch:type="MSShapeGroup" fill="#333" d="m87.951 146.07c0.183-0.73 0.549-2.2 2.743-2.2h1.097v3.84c-0.365 0-0.548-0.18-0.914-0.18-0.914 0-1.646 0.37-2.012 0.73-0.548 0.55-0.548 1.1-0.548 2.2v1.82h1.28v3.3h-6.401v-3.3h0.914v-5.12h-0.914v-3.29h4.572l0.183 2.2"/>
   <path id="Fill-11" sketch:type="MSShapeGroup" fill="#333" d="m100.94 148.44c0-0.54 0-1.82 1.46-1.82 0.36 0 0.91 0.18 1.28 0.91v0.91h-2.74zm2.74 3.11c0 0.55-0.18 1.47-1.46 1.47-1.47 0-1.47-1.47-1.47-2.38h7.13c0-1.1 0.19-3.84-1.64-5.49-0.73-0.91-2.2-1.46-4.02-1.46-2.382 0-4.576 1.1-5.308 3.84-0.366 0.73-0.366 1.65-0.366 2.38 0 4.39 2.744 6.03 5.854 6.03 1.46 0 2.92-0.36 4.02-1.46 0.92-0.92 1.1-2.01 1.28-2.93h-4.02z"/>
   <path id="Fill-12" sketch:type="MSShapeGroup" fill="#333" d="m118.13 143.87v8.41h0.91v3.3h-6.22v-3.3h1.1v-5.12h-1.1v-3.29h5.31zm-4.58-4.2h4.58v3.11h-4.58v-3.11z"/>
   <path id="Fill-13" sketch:type="MSShapeGroup" fill="#333" d="m124.89 151.19h4.39v4.39h-4.39v-4.39z"/>
   <path id="Fill-14" sketch:type="MSShapeGroup" fill="#333" d="m145.92 151.19c0 0.73 0 1.28-0.36 2.19-0.73 1.28-2.01 2.56-4.94 2.56-2.74 0-3.66-1.1-4.02-1.46-1.28-1.28-1.65-3.11-1.65-4.94 0-0.73 0-3.29 1.65-4.75 0.73-0.73 1.83-1.1 2.92-1.1 0.55 0 1.28 0 1.83 0.37 0.55 0.36 0.92 0.54 1.1 1.09l0.18-1.28h3.11v4.57h-3.66c0-0.54 0-0.91-0.54-1.46-0.19-0.18-0.55-0.18-0.74-0.18-1.28 0-1.46 1.1-1.46 2.92 0 1.65 0.18 2.93 1.46 2.93 1.1 0 1.28-0.91 1.28-1.46h3.84"/>
   <path id="Fill-15" sketch:type="MSShapeGroup" fill="#333" d="m158.18 149.72c0 0.74 0 2.93-1.65 2.93-0.73 0-1.1-0.55-1.46-0.91-0.19-0.55-0.19-1.28-0.19-2.02 0-0.54 0-1.82 0.55-2.56 0.37-0.18 0.55-0.36 1.1-0.36 1.65 0 1.65 2.19 1.65 2.92zm-7.68 0c0 0.92 0.18 3.11 1.64 4.76 0.92 0.73 1.83 1.1 2.74 1.28 0.55 0.18 1.1 0.18 1.65 0.18 0.91 0 2.01-0.18 3.11-0.55 0.92-0.55 1.83-1.28 2.38-2.92 0.36-0.92 0.36-1.83 0.36-2.56 0-3.84-1.82-6.22-5.85-6.22-1.1 0-2.19 0.18-3.29 0.73-2.74 1.46-2.74 4.39-2.74 5.3z"/>
   <path id="Fill-16" sketch:type="MSShapeGroup" fill="#333" d="m172.44 145.52c0.37-0.73 1.46-1.83 3.29-1.83 0.55 0 1.47 0 2.2 0.91 0.36 0.37 0.55 0.55 0.73 0.92 0-0.18 0.18-0.55 0.55-0.92 0.55-0.54 1.46-0.91 2.56-0.91s1.83 0.37 2.19 0.73c0.74 0.73 0.74 1.65 0.92 2.38v5.48h0.91v3.3h-5.12v-7.14c0-0.54 0-1.28-0.91-1.28-0.19 0-0.55 0.19-0.74 0.37-0.36 0.37-0.36 0.73-0.36 1.28v3.47h0.73v3.3h-4.75v-6.77c0-0.73 0-1.65-0.92-1.65-0.36 0-0.55 0.19-0.73 0.37-0.37 0.37-0.37 0.91-0.37 1.46v3.29h0.74v3.3h-5.86v-3.3h0.92v-5.12h-0.92v-3.29h4.76l0.18 1.65"/>
  </g>
 </g>
</svg>
