<?xml version="1.0" encoding="UTF-8" standalone="no"?>
<svg xmlns:sketch="http://www.bohemiancoding.com/sketch/ns" xmlns="http://www.w3.org/2000/svg" height="199px" width="199px" version="1.1" xmlns:xlink="http://www.w3.org/1999/xlink" viewBox="0 0 200 200"><!-- Generator: Sketch 3.3.1 (12002) - http://www.bohemiancoding.com/sketch -->
 <title>wedding3</title>
 <desc>Created with Sketch.</desc>
 <defs>
  <path id="path-1" d="m0.57143 0.90435h199.43v199.96h-199.43l0.00143-199.96z"/>
 </defs>
 <g id="Page-1" fill-rule="evenodd" sketch:type="MSPage" fill="none">
  <g id="wedding3" sketch:type="MSLayerGroup">
   <g id="Group-4" fill="#a3a3a3">
    <mask id="mask-2" sketch:name="Clip 2" fill="white">
     <use xlink:href="#path-1"/>
    </mask>
    <path id="Fill-1" sketch:type="MSShapeGroup" mask="url(#mask-2)" d="m53.352 38.991c-4.209 0-7.628-3.418-7.628-7.627v-22.833c0-4.2083 3.419-7.6266 7.628-7.6266 4.162-0.00005 7.581 3.4183 7.581 7.6269v22.833c0 4.209-3.419 7.627-7.581 7.627z"/>
    <path id="Fill-3" sketch:type="MSShapeGroup" d="m175.22 16.158h-15.21v15.206c0 8.408-6.85 15.254-15.26 15.254s-15.21-6.846-15.21-15.254v-15.206h-60.978v15.206c0 8.408-6.81 15.254-15.21 15.254-8.409 0-15.257-6.846-15.257-15.254v-15.206h-15.257c-12.609 0-22.838 10.227-22.838 22.833v137.1c0 12.65 10.229 22.88 22.838 22.88h152.38c12.66 0 22.88-10.23 22.88-22.88v-137.1c0-12.605-10.22-22.832-22.88-22.832zm7.63 159.93c0 4.2-3.42 7.62-7.63 7.62h-152.38c-4.164 0-7.583-3.42-7.583-7.62v-106.64l167.59 0.001v106.64z"/>
   </g>
   <path id="Fill-5" sketch:type="MSShapeGroup" fill="#a3a3a3" d="m144.75 38.991c-4.2 0-7.63-3.418-7.63-7.627v-22.833c0-4.2083 3.43-7.6266 7.63-7.6266 4.21-0.00005 7.63 3.4183 7.63 7.6269v22.833c0 4.209-3.42 7.627-7.63 7.627z"/>
   <path id="Fill-6" sketch:type="MSShapeGroup" fill="#AF78C7" d="m115.4 93.256c-6.99 0-13.06 5.027-16.371 8.484-3.305-3.457-9.372-8.484-16.362-8.484-12.172 0-20.724 8.484-20.724 20.604 0 13.36 10.6 21.99 20.8 30.39 4.79 3.91 9.819 8.03 13.609 12.57 0.677 0.75 1.638 1.19 2.572 1.19h0.219c0.967 0 1.897-0.48 2.567-1.19 3.83-4.57 8.85-8.66 13.61-12.57 10.24-8.4 20.8-17.03 20.8-30.39 0-12.12-8.52-20.604-20.72-20.604z"/>
  </g>
 </g>
</svg>
