<?xml version="1.0" encoding="UTF-8" standalone="no"?>
<svg xmlns:sketch="http://www.bohemiancoding.com/sketch/ns" xmlns="http://www.w3.org/2000/svg" height="175px" width="200px" version="1.1" xmlns:xlink="http://www.w3.org/1999/xlink" viewBox="0 0 200 175"><!-- Generator: Sketch 3.3.1 (12002) - http://www.bohemiancoding.com/sketch -->
 <title>Untitled</title>
 <desc>Created with Sketch.</desc>
 <defs>
  <path id="path-1" d="m0.23529 0.52078h199.76v176.69h-199.76l-0.00471-176.69z"/>
 </defs>
 <g id="Page-1" fill-rule="evenodd" sketch:type="MSPage" fill="none">
  <g id="wedding16" sketch:type="MSLayerGroup">
   <path id="Fill-1" sketch:type="MSShapeGroup" fill="#AF78C7" d="m119.75 16.411l0.64 0.675-4.11 3.821-0.63-0.691 4.1-3.805z"/>
   <path id="Fill-2" sketch:type="MSShapeGroup" fill="#AF78C7" d="m113.49 13.914l0.42 5.579-0.91 0.079-0.42-5.599 0.91-0.059z"/>
   <path id="Fill-3" sketch:type="MSShapeGroup" fill="#a3a3a3" d="m162.1 38.144c3.95 2.348 17.14 10.154 19.29 11.399 2.13 1.24-4.41 5.442-4.63 9.984-0.26 6.212 3.25 1.901 3.25 1.901l2.04-3.404c4.44-7.531 8.06-13.621 0.78-17.929l-4.52-2.654s-5.32-2.01-10.48-16.212c-3.61 4.264-0.27 9.847-0.27 9.847s-4.11-6.015-5.86-5.54c0 0-3.57 10.28 0.4 12.608z"/>
   <path id="Fill-4" sketch:type="MSShapeGroup" fill="#AF78C7" d="m107.2 17.424l4.23 3.652-0.61 0.703-4.23-3.648 0.61-0.707z"/>
   <path id="Fill-5" sketch:type="MSShapeGroup" fill="#AF78C7" d="m86.675 7.1643c-3.695-4.4172-10.173-2.5482-10.757 2.7289h0.047c-0.506 4.7388 3.584 7.7628 7.368 10.692h-0.015s2.055 1.516 2.925 2.375c0.11 0.11 0.263 0.169 0.416 0.169h0.027c0.169 0 0.31-0.059 0.416-0.169 0.674-0.659 1.823-1.562 2.42-1.994 0.062-0.043 0.458-0.338 0.505-0.381 3.538-2.776 7.906-5.847 7.353-10.692l0.063 0.0002c-0.584-5.2457-7.063-7.1775-10.768-2.7289z"/>
   <g id="Group-11">
    <mask id="mask-2" sketch:name="Clip 7" fill="white">
     <use xlink:href="#path-1"/>
    </mask>
    <path id="Fill-6" sketch:type="MSShapeGroup" fill="#a3a3a3" mask="url(#mask-2)" d="m80.376 72.87c-7.184 0.781-13.466-0.676-18.521-4.877-1.055-7.932-1.973-15.906-2.863-23.865-0.737-6.687-4.949-12.392-12.255-12.439-6.113-0.047-13.172 5.552-12.423 12.27 1.408 12.792 2.894 25.597 4.811 38.33l-22.09 43.301 27.557 0.46v37.43c0 10.63 16.451 10.63 16.451 0v-37.16l5.086 0.09-0.121-41.624c4.459 1.351 9.267 1.826 14.384 1.261 8.333-0.907 8.424-14.096-0.016-13.177z"/>
    <path id="Fill-8" sketch:type="MSShapeGroup" fill="#a3a3a3" mask="url(#mask-2)" d="m193.54 151.77c-7.14-2.32-14.31-4.64-21.47-6.95-11.67-4.74-13.63-11.98-14.35-14.29 0.93-1.92 0.73-6.83 0.73-7-0.24-11.75 0.27-28.88 9.95-36.918 5.87-4.861 4.9-14.83-0.11-19.801-3.06-3.035-6.8-4.186-10.49-3.864-9.45-7.33-19.16-14.327-29.06-21.073v-26.967h-5.78v17.241h-3.72c0.38-0.828 0.61-1.704 0.61-2.67 0-2.269-1.24-4.248-3.05-5.351l-3.26-3.373-3.18 3.388c-1.8 1.104-3.04 3.067-3.04 5.352 0 0.95 0.22 1.842 0.61 2.654h-1.71v9.895h5.8c-2.25 4.032-2.05 9.632 2.87 12.93 9.18 6.149 30.42 21.776 31.69 22.773l-9.71 13.652 0.66-9.694c-4.7 10.122-6.56 22.176-6.98 33.176-4.39-0.11-8.75-0.15-13.13-0.17-3.76 0-8.38 2.82-8.98 6.87-2.62 17.58 2.28 34.22 12.12 48.87 6.66 9.94 22.82 0.6 16.08-9.42-5.45-8.14-10.03-17.65-10.55-27.58 3.05 0.04 6.11 0.11 9.17 0.23 1.4 1.15 3.05 2 4.75 2.55 3.62 10.98 10.56 21.24 21.86 24.88 8.89 2.9 17.78 5.77 26.7 8.65 11.48 3.71 16.36-14.31 4.97-17.99zm-75.74-119.62h-8.4c-0.49-0.765-0.78-1.688-0.78-2.654 0-1.995 1.22-3.71 2.91-4.508l4.16-0.015c1.71 0.797 2.91 2.517 2.91 4.523-0.02 0.982-0.33 1.889-0.8 2.654zm18.41 79.172c-1.02 0-1.86-1.67-1.86-3.74s0.84-3.74 1.86-3.74c1.03 0 1.87 1.65 1.87 3.74 0 2.07-0.84 3.74-1.87 3.74zm0.94-8.39c-1.03 0-1.87-1.67-1.87-3.741 0-2.07 0.84-3.727 1.87-3.727 1.02 0 1.87 1.657 1.87 3.727 0 2.071-0.85 3.741-1.87 3.741z"/>
    <path id="Fill-9" sketch:type="MSShapeGroup" fill="#a3a3a3" mask="url(#mask-2)" d="m20.51 42.059c6.482 0.565 9.286-3.562 10.141-9.973 1.059-8.972-1.086-15.074 0.584-20.767 1.318 0.141 2.589 0.4 3.875 0.643-0.412 1.32-0.643 2.733-0.643 4.19 0 7.653 6.188 13.849 13.831 13.849 7.647 0 13.835-6.196 13.835-13.849 0-7.6527-6.188-13.849-13.835-13.849-3.584 0.0004-6.847 1.3786-9.314 3.6167-9.815-10.598-21.643-4.433-17.125 8.3593 5.592 15.753 8.87 26.382-1.349 27.78z"/>
    <path id="Fill-10" sketch:type="MSShapeGroup" fill="#AF78C7" mask="url(#mask-2)" d="m6.9098 68.821c-2.3608-2.838-6.5412-1.657-6.9098 1.748h0.031373c-0.35294 3.054 2.3137 4.955 4.7333 6.855 0.0588 0.094 2.0196 1.642 2.1608 1.642 0.1059 0 2.0823-1.579 2.1294-1.642 2.4511-1.884 5.0231-3.773 4.7181-6.871h0.031c-0.353-3.404-4.5687-4.539-6.8942-1.732z"/>
   </g>
  </g>
 </g>
</svg>
